<svg width="24" height="24" viewBox="0 0 24 24" fill="none" xmlns="http://www.w3.org/2000/svg">
<path d="M6 4V10.025V10V20V4ZM6 22C5.45 22 4.97917 21.8042 4.5875 21.4125C4.19583 21.0208 4 20.55 4 20V4C4 3.45 4.19583 2.97917 4.5875 2.5875C4.97917 2.19583 5.45 2 6 2H13.175C13.4417 2 13.6958 2.05 13.9375 2.15C14.1792 2.25 14.3917 2.39167 14.575 2.575L19.425 7.425C19.6083 7.60833 19.75 7.82083 19.85 8.0625C19.95 8.30417 20 8.55833 20 8.825V10C20 10.2833 19.9042 10.5167 19.7125 10.7C19.5208 10.8833 19.2833 10.975 19 10.975C18.7167 10.975 18.4792 10.8792 18.2875 10.6875C18.0958 10.4958 18 10.2583 18 9.975V9H14C13.7167 9 13.4792 8.90417 13.2875 8.7125C13.0958 8.52083 13 8.28333 13 8V4H6V20H12C12.2833 20 12.5208 20.0958 12.7125 20.2875C12.9042 20.4792 13 20.7167 13 21C13 21.2833 12.9042 21.5208 12.7125 21.7125C12.5208 21.9042 12.2833 22 12 22H6Z" fill="#1F1F1F"/>
<path d="M12.9 16.65L11.425 15.175L12.9 13.7C13.1 13.5 13.2 13.2667 13.2 13C13.2 12.7333 13.1 12.5 12.9 12.3C12.7 12.1 12.4625 12 12.1875 12C11.9125 12 11.675 12.1 11.475 12.3L9.3 14.475C9.1 14.675 9 14.9083 9 15.175C9 15.4417 9.1 15.675 9.3 15.875L11.475 18.05C11.675 18.25 11.9125 18.35 12.1875 18.35C12.4625 18.35 12.7 18.25 12.9 18.05C13.1 17.85 13.2 17.6167 13.2 17.35C13.2 17.0833 13.1 16.85 12.9 16.65Z" fill="#1F1F1F"/>
<path d="M16.3 13.7L17.775 15.175L16.3 16.65C16.1 16.85 16 17.0833 16 17.35C16 17.6167 16.1 17.85 16.3 18.05C16.5 18.25 16.7375 18.35 17.0125 18.35C17.2875 18.35 17.525 18.25 17.725 18.05L19.9 15.875C20.1 15.675 20.2 15.4417 20.2 15.175C20.2 14.9083 20.1 14.675 19.9 14.475L17.725 12.3C17.525 12.1 17.2875 12 17.0125 12C16.7375 12 16.5 12.1 16.3 12.3C16.1 12.5 16 12.7333 16 13C16 13.2667 16.1 13.5 16.3 13.7Z" fill="#1F1F1F"/>
</svg>
