<svg width="24" height="24" viewBox="0 0 24 24" fill="none" xmlns="http://www.w3.org/2000/svg">
<path d="M10.55 20.575L8.425 18.45C8.225 18.25 8.12917 18.0125 8.1375 17.7375C8.14584 17.4625 8.25 17.225 8.45 17.025C8.65 16.825 8.8875 16.725 9.1625 16.725C9.4375 16.725 9.675 16.825 9.875 17.025L12 19.175L14.125 17.05C14.3083 16.8667 14.5417 16.775 14.825 16.775C15.1083 16.775 15.3417 16.8667 15.525 17.05C15.7083 17.2333 15.8 17.4667 15.8 17.75C15.8 18.0333 15.7083 18.2667 15.525 18.45L13.4 20.575C13.2 20.775 12.975 20.925 12.725 21.025C12.475 21.125 12.225 21.175 11.975 21.175C11.725 21.175 11.475 21.125 11.225 21.025C10.975 20.925 10.75 20.775 10.55 20.575ZM5.525 15.575L3.4 13.45C3.2 13.25 3.05 13.025 2.95 12.775C2.85 12.525 2.8 12.275 2.8 12.025C2.8 11.775 2.85 11.525 2.95 11.275C3.05 11.025 3.2 10.8 3.4 10.6L5.525 8.475C5.725 8.275 5.9625 8.175 6.2375 8.175C6.5125 8.175 6.75 8.275 6.95 8.475C7.15 8.675 7.25 8.9125 7.25 9.1875C7.25 9.4625 7.15 9.7 6.95 9.9L4.8 12.05L6.925 14.175C7.10834 14.3583 7.2 14.5917 7.2 14.875C7.2 15.1583 7.10834 15.3917 6.925 15.575C6.74167 15.7583 6.50834 15.85 6.225 15.85C5.94167 15.85 5.70834 15.7583 5.525 15.575ZM8.425 5.55L10.55 3.425C10.75 3.225 10.975 3.075 11.225 2.975C11.475 2.875 11.725 2.825 11.975 2.825C12.225 2.825 12.475 2.875 12.725 2.975C12.975 3.075 13.2 3.225 13.4 3.425L15.525 5.55C15.725 5.75 15.825 5.98333 15.825 6.25C15.825 6.51666 15.725 6.75 15.525 6.95C15.325 7.15 15.0875 7.25 14.8125 7.25C14.5375 7.25 14.3 7.15 14.1 6.95L11.95 4.825L9.825 6.95C9.64167 7.13333 9.40834 7.225 9.125 7.225C8.84167 7.225 8.60834 7.13333 8.425 6.95C8.24167 6.76666 8.15 6.53333 8.15 6.25C8.15 5.96666 8.24167 5.73333 8.425 5.55ZM17.025 14.125L19.15 12L17.025 9.875C16.8417 9.69166 16.75 9.45833 16.75 9.175C16.75 8.89166 16.8417 8.65833 17.025 8.475C17.2083 8.29166 17.4417 8.2 17.725 8.2C18.0083 8.2 18.2417 8.29166 18.425 8.475L20.55 10.6C20.75 10.8 20.9 11.025 21 11.275C21.1 11.525 21.15 11.775 21.15 12.025C21.15 12.275 21.1 12.525 21 12.775C20.9 13.025 20.75 13.25 20.55 13.45L18.425 15.575C18.225 15.775 17.9917 15.8708 17.725 15.8625C17.4583 15.8542 17.225 15.75 17.025 15.55C16.825 15.35 16.725 15.1125 16.725 14.8375C16.725 14.5625 16.825 14.325 17.025 14.125Z" fill="#1F1F1F"/>
</svg>
