<svg width="24" height="24" viewBox="0 0 24 24" fill="none" xmlns="http://www.w3.org/2000/svg">
<path d="M12 2C6.48437 2 2 6.48437 2 12C2 17.5156 6.48437 22 12 22C17.5156 22 22 17.5156 22 12C22 6.48437 17.5156 2 12 2Z" fill="#FDDD4C"/>
<path d="M7.62061 14.6073C7.40195 14.2762 7.95194 13.7752 7.72822 13.3545C7.59927 13.1119 7.3885 12.9607 7.13538 12.929C6.89244 12.8985 6.64219 12.9874 6.48267 13.1612C6.23083 13.4353 6.19167 13.8084 6.24038 13.9404C6.25821 13.9887 6.28623 14.0019 6.30629 14.0048C6.44346 14.0229 6.52064 13.6708 6.568 13.5974C6.69894 13.3954 6.99627 13.3342 7.2016 13.467C7.59094 13.7189 7.25334 14.1259 7.28247 14.4696C7.31082 14.8043 7.51936 14.9389 7.70657 14.953C7.88872 14.9599 8.01608 14.8587 8.04822 14.7849C8.12529 14.6085 7.80051 14.8797 7.62061 14.6073Z" fill="black"/>
<path d="M15.7555 11.5684C15.6534 11.5544 15.5418 11.5547 15.4256 11.5684C15.3375 11.4572 15.2585 11.2771 15.2139 11.0669C15.1346 10.6929 15.1429 10.4219 15.3642 10.3867C15.5855 10.3516 15.6924 10.5779 15.7717 10.9519C15.8249 11.2033 15.8147 11.4343 15.7555 11.5684Z" fill="black"/>
<path d="M13.3319 11.791C13.3407 11.8757 13.3437 11.9614 13.3412 12.0403C13.5554 12.0529 13.707 12.1545 13.7474 12.2191C13.7681 12.2524 13.7598 12.2741 13.7532 12.2841C13.7309 12.3186 13.6834 12.3133 13.5839 12.3021C13.497 12.2924 13.4034 12.2838 13.3062 12.2882C13.2532 12.4506 13.0963 12.4658 12.986 12.3457C12.909 12.3692 12.7577 12.4658 12.7126 12.3608C12.7122 12.3087 12.7667 12.2329 12.8654 12.1661C12.798 12.0376 12.7529 11.9001 12.7262 11.7577C12.5864 11.7829 12.4605 11.822 12.3619 11.8527C12.3156 11.8672 12.1324 11.9499 12.1109 11.8567C12.0965 11.7922 12.1968 11.686 12.3029 11.6093C12.4213 11.5252 12.5527 11.4654 12.689 11.4309C12.6861 11.2281 12.7378 11.0865 12.8852 11.0631C13.0679 11.034 13.1812 11.1747 13.2596 11.4352C13.4804 11.4966 13.701 11.6487 13.7984 11.806C13.8362 11.867 13.8436 11.9142 13.819 11.939C13.7578 12.0024 13.4187 11.8185 13.3319 11.791Z" fill="black"/>
<path d="M14.7841 12.7027C14.9241 12.7706 15.0783 12.7439 15.1286 12.643C15.1789 12.5421 15.106 12.4054 14.9659 12.3375C14.8258 12.2697 14.6717 12.2964 14.6214 12.3972C14.5711 12.4981 14.644 12.6348 14.7841 12.7027Z" fill="black"/>
<path d="M15.4737 12.2017C15.4762 12.0474 15.5708 11.9242 15.6845 11.9261C15.7981 11.9283 15.8882 12.0546 15.8857 12.2086C15.8831 12.3626 15.7886 12.4859 15.6749 12.4839C15.5612 12.4821 15.4711 12.3557 15.4737 12.2017Z" fill="black"/>
<path fill-rule="evenodd" clip-rule="evenodd" d="M18.5561 14.0915C18.5551 14.0883 18.5583 14.0995 18.5561 14.0915C18.7844 14.0915 19.1429 14.3505 19.1429 14.9762C19.1429 15.5989 18.8811 16.3041 18.8194 16.4607C17.8766 18.6908 15.6266 19.9322 12.9463 19.8537C10.4476 19.7805 8.31657 18.479 7.38401 16.3572C6.82014 16.3579 6.23875 16.113 5.79682 15.7265C5.33102 15.3192 5.04383 14.7921 4.9878 14.2424C4.94418 13.8144 4.99735 13.4162 5.1333 13.0689L4.60955 12.6307C2.21269 10.6332 9.70921 2.40835 12.1067 4.47257C12.1188 4.48294 12.9224 5.2611 12.9244 5.26299C14.0804 4.77849 17.1778 3.85602 17.1812 6.00345C17.1825 6.71656 16.7221 7.54815 15.9844 8.30274C16.837 9.08317 16.6121 10.1918 16.7479 11.209L17.044 11.29C17.6085 11.4462 18.01 11.6546 18.2065 11.8582C18.4029 12.0616 18.5004 12.2587 18.5357 12.4897C18.5688 12.676 18.5644 13.0051 18.3154 13.3731C18.405 13.6105 18.4869 13.8472 18.5561 14.0915ZM7.34167 15.7787C7.4254 15.7805 7.5085 15.7752 7.59001 15.7614C8.46593 15.614 8.69514 14.6749 8.55092 13.7527C8.38793 12.7115 7.67438 12.3445 7.19011 12.3184C7.05543 12.3115 6.9303 12.3234 6.82715 12.3438C5.96271 12.5157 5.47462 13.2417 5.57077 14.1846C5.65769 15.0379 6.532 15.7572 7.34167 15.7787ZM5.38388 12.5997C5.67393 12.1839 6.14801 11.8831 6.6861 11.7797C7.37095 9.96502 8.51464 8.29303 10.0283 7.14241C11.1516 6.21747 12.363 5.55402 12.363 5.55402C12.363 5.55402 11.7106 4.80728 11.5136 4.75228C10.3014 4.4292 7.68362 6.21119 6.01206 8.56581C5.3358 9.51838 4.36757 11.2055 4.83051 12.0732C4.8875 12.1807 5.21067 12.457 5.38388 12.5997ZM15.2111 15.3619C15.2129 15.3814 15.2009 15.4015 15.1834 15.4087C15.1834 15.4087 14.2094 15.856 12.6623 15.3836C12.7179 15.8473 13.2803 16.023 13.6732 16.0867C15.5902 16.4122 17.3825 15.3302 17.7859 15.0577C17.8551 15.0109 17.785 15.1312 17.7725 15.1488C17.2786 15.7777 15.951 16.5059 14.2237 16.5056C13.4704 16.5052 12.7174 16.2435 12.441 15.8409C12.0121 15.2164 12.4197 14.3047 13.1345 14.3995C14.3427 14.5342 15.5814 14.433 16.6999 13.9206C17.6751 13.4737 18.0434 12.9822 17.9881 12.584C17.9021 11.9668 16.9872 11.8703 16.5247 11.7203C16.3235 11.6546 16.2241 11.6021 16.2016 11.2285C16.1917 11.0653 16.163 10.4962 16.1525 10.2607C16.1341 9.84874 16.0837 9.28524 15.7297 9.05267C15.6374 8.99195 15.5349 8.96274 15.4269 8.9571C15.3409 8.95295 15.2898 8.96481 15.2624 8.97117C15.2562 8.9726 15.2512 8.97374 15.2474 8.97438C15.0561 9.00645 14.939 9.10317 14.8009 9.21724C14.7929 9.22381 14.7849 9.23045 14.7768 9.2371C14.3351 9.60045 13.9623 9.65981 13.5474 9.64224C13.4182 9.63681 13.2851 9.62395 13.1446 9.61031C13.0154 9.59781 12.88 9.58467 12.7359 9.57624L12.5598 9.56617C11.8651 9.53095 11.12 10.1231 10.9961 10.9641C10.8578 11.9029 11.3825 12.4779 11.7237 12.8518C11.8081 12.9442 11.8812 13.0243 11.9304 13.0947C11.9619 13.1371 11.9985 13.1968 11.9985 13.2537C11.9985 13.3216 11.9539 13.3753 11.9103 13.4212C11.2015 14.1406 10.9749 15.2837 11.242 16.2362C11.2754 16.355 11.3177 16.4688 11.3677 16.5775C11.9944 18.023 13.9384 18.6962 15.8373 18.0839C17.1681 17.6548 18.344 16.6179 18.5834 15.1875C18.6404 14.8147 18.5567 14.6708 18.4427 14.6013C18.3221 14.5281 18.1775 14.5535 18.1775 14.5535C18.1775 14.5535 18.1116 14.1082 17.925 13.7035C17.3714 14.1346 16.6588 14.4376 16.1162 14.5912C15.247 14.8375 14.308 14.9332 13.4098 14.8172C13.0454 14.7701 12.8006 14.7385 12.6957 15.075C13.8939 15.508 15.162 15.3226 15.162 15.3226C15.1865 15.3201 15.2085 15.3377 15.2111 15.3619ZM11.7543 6.95761C11.099 7.28855 10.3674 7.87781 9.77321 8.55574C9.75221 8.57995 9.78343 8.61324 9.80921 8.59474C10.3224 8.2261 11.0261 7.88352 11.9479 7.66161C12.9804 7.41301 13.9744 7.51735 14.5816 7.6547C14.6121 7.66161 14.6312 7.60975 14.6042 7.59467C14.203 7.37247 13.5872 7.22161 13.1504 7.21847C13.1291 7.21815 13.117 7.19364 13.1297 7.17667C13.2051 7.07641 13.3086 6.97741 13.4032 6.90575C13.4242 6.88941 13.4115 6.85579 13.3847 6.85735C12.8414 6.8903 11.6001 7.45623 11.6046 7.43564C11.6364 7.28478 11.7367 7.08552 11.7886 6.9925C11.8011 6.9705 11.7769 6.9463 11.7543 6.95761Z" fill="black"/>
</svg>
