<svg width="24" height="24" viewBox="0 0 24 24" fill="none" xmlns="http://www.w3.org/2000/svg">
<path d="M10.2379 2.46631L10.1368 2.52809C9.97594 2.62636 9.82443 2.73624 9.68304 2.85629L9.97468 2.64908H12.45L12.9 6.09091L10.65 8.36364L8.4 9.94336V11.765C8.4 13.0372 9.05831 14.217 10.1358 14.8758L12.5045 16.324L7.5 19.2728H6.53479L4.73582 18.1729C3.65829 17.5141 3 16.3343 3 15.062V8.93664C3 7.66395 3.65871 6.48386 4.73678 5.82518L10.1368 2.52585C10.1703 2.5054 10.204 2.48556 10.2379 2.46631Z" fill="url(#paint0_radial_97_45)"/>
<path d="M10.2379 2.46631L10.1368 2.52809C9.97594 2.62636 9.82443 2.73624 9.68304 2.85629L9.97468 2.64908H12.45L12.9 6.09091L10.65 8.36364L8.4 9.94336V11.765C8.4 13.0372 9.05831 14.217 10.1358 14.8758L12.5045 16.324L7.5 19.2728H6.53479L4.73582 18.1729C3.65829 17.5141 3 16.3343 3 15.062V8.93664C3 7.66395 3.65871 6.48386 4.73678 5.82518L10.1368 2.52585C10.1703 2.5054 10.204 2.48556 10.2379 2.46631Z" fill="url(#paint1_linear_97_45)"/>
<path d="M15.6 9.72726V11.7638C15.6 13.036 14.9417 14.2158 13.8642 14.8746L8.46417 18.1763C7.35951 18.8517 5.98508 18.876 4.86098 18.2494L10.1358 21.4745C11.2818 22.1752 12.7182 22.1752 13.8642 21.4745L19.2642 18.1729C20.3417 17.514 21 16.3343 21 15.062V13.5909L20.55 12.9091L15.6 9.72726Z" fill="url(#paint2_radial_97_45)"/>
<path d="M15.6 9.72726V11.7638C15.6 13.036 14.9417 14.2158 13.8642 14.8746L8.46417 18.1763C7.35951 18.8517 5.98508 18.876 4.86098 18.2494L10.1358 21.4745C11.2818 22.1752 12.7182 22.1752 13.8642 21.4745L19.2642 18.1729C20.3417 17.514 21 16.3343 21 15.062V13.5909L20.55 12.9091L15.6 9.72726Z" fill="url(#paint3_linear_97_45)"/>
<path d="M19.2632 5.82513L13.8632 2.52581C12.7532 1.84759 11.3709 1.82658 10.2441 2.46277L10.1368 2.52832C9.05871 3.18701 8.4 4.36707 8.4 5.63977V9.95063L10.1368 8.88945C11.2823 8.18959 12.7177 8.18959 13.8632 8.88945L19.2632 12.1888C20.3076 12.8269 20.9584 13.9543 20.9981 15.1811C20.9994 15.1415 21 15.1018 21 15.062V8.93659C21 7.66391 20.3413 6.48382 19.2632 5.82513Z" fill="url(#paint4_radial_97_45)"/>
<path d="M19.2632 5.82513L13.8632 2.52581C12.7532 1.84759 11.3709 1.82658 10.2441 2.46277L10.1368 2.52832C9.05871 3.18701 8.4 4.36707 8.4 5.63977V9.95063L10.1368 8.88945C11.2823 8.18959 12.7177 8.18959 13.8632 8.88945L19.2632 12.1888C20.3076 12.8269 20.9584 13.9543 20.9981 15.1811C20.9994 15.1415 21 15.1018 21 15.062V8.93659C21 7.66391 20.3413 6.48382 19.2632 5.82513Z" fill="url(#paint5_linear_97_45)"/>
<defs>
<radialGradient id="paint0_radial_97_45" cx="0" cy="0" r="1" gradientTransform="matrix(-5.26508 14.2032 -24.5255 -9.27614 9.03837 5.9265)" gradientUnits="userSpaceOnUse">
<stop offset="0.06441" stop-color="#AE7FE2"/>
<stop offset="1" stop-color="#0078D4"/>
</radialGradient>
<linearGradient id="paint1_linear_97_45" x1="9.08036" y1="18.3039" x2="6.90565" y2="14.5802" gradientUnits="userSpaceOnUse">
<stop stop-color="#114A8B"/>
<stop offset="1" stop-color="#0078D4" stop-opacity="0"/>
</linearGradient>
<radialGradient id="paint2_radial_97_45" cx="0" cy="0" r="1" gradientTransform="matrix(13.8239 -2.05378 1.34309 9.22385 5.89346 17.6141)" gradientUnits="userSpaceOnUse">
<stop offset="0.133928" stop-color="#D59DFF"/>
<stop offset="1" stop-color="#5E438F"/>
</radialGradient>
<linearGradient id="paint3_linear_97_45" x1="19.3605" y1="12.6258" x2="17.0337" y2="15.9288" gradientUnits="userSpaceOnUse">
<stop stop-color="#493474"/>
<stop offset="1" stop-color="#8C66BA" stop-opacity="0"/>
</linearGradient>
<radialGradient id="paint4_radial_97_45" cx="0" cy="0" r="1" gradientTransform="matrix(-10.8712 -2.78434 4.64031 -18.4856 19.6748 13.1382)" gradientUnits="userSpaceOnUse">
<stop offset="0.0584996" stop-color="#50E6FF"/>
<stop offset="1" stop-color="#436DCD"/>
</radialGradient>
<linearGradient id="paint5_linear_97_45" x1="8.83911" y1="2.48025" x2="12.2191" y2="2.48025" gradientUnits="userSpaceOnUse">
<stop stop-color="#2D3F80"/>
<stop offset="1" stop-color="#436DCD" stop-opacity="0"/>
</linearGradient>
</defs>
</svg>
