<svg width="24" height="24" viewBox="0 0 24 24" fill="none" xmlns="http://www.w3.org/2000/svg">
<path d="M19.2888 10.3687L14.339 15.3185V17.7226C14.339 17.8641 14.3125 17.9966 14.2595 18.1204C14.2064 18.2441 14.1328 18.3531 14.0385 18.4474L13.6319 18.854C13.4316 19.0544 13.1959 19.1545 12.9248 19.1545C12.6537 19.1545 12.418 19.0544 12.2177 18.854L9.38927 16.0256L5.2527 20.1622C5.05235 20.3625 4.81665 20.4627 4.54559 20.4627C4.27453 20.4627 4.03883 20.3625 3.83848 20.1622C3.63814 19.9618 3.53796 19.7261 3.53796 19.4551C3.53796 19.184 3.63814 18.9483 3.83848 18.748L7.97506 14.6114L5.14663 11.7829C4.94628 11.5826 4.84611 11.3469 4.84611 11.0758C4.84611 10.8048 4.94628 10.5691 5.14663 10.3687L5.55322 9.96215C5.6475 9.86787 5.75651 9.79421 5.88025 9.74118C6.004 9.68814 6.13658 9.66163 6.278 9.66163H8.68217L13.6319 4.71188C13.4316 4.51153 13.3314 4.27583 13.3314 4.00477C13.3314 3.73372 13.4316 3.49801 13.6319 3.29767C13.8323 3.09732 14.068 2.99715 14.339 2.99715C14.6101 2.99715 14.8458 3.09732 15.0461 3.29767L20.703 8.95452C20.9033 9.15487 21.0035 9.39057 21.0035 9.66163C21.0035 9.93269 20.9033 10.1684 20.703 10.3687C20.5026 10.5691 20.2669 10.6693 19.9959 10.6693C19.7248 10.6693 19.4891 10.5691 19.2888 10.3687ZM7.86899 11.6769L12.3238 16.1317V14.5053L17.8746 8.95452L15.0461 6.12609L9.49534 11.6769H7.86899Z" fill="#1F1F1F"/>
</svg>
