<svg width="24" height="24" viewBox="0 0 24 24" fill="none" xmlns="http://www.w3.org/2000/svg">
<path d="M12 22C17.5228 22 22 17.5228 22 12C22 6.47715 17.5228 2 12 2C6.47715 2 2 6.47715 2 12C2 17.5228 6.47715 22 12 22Z" fill="#229ED9"/>
<path fill-rule="evenodd" clip-rule="evenodd" d="M6.52334 11.8969C9.43879 10.6308 11.3797 9.78949 12.3542 9.38133C15.1281 8.22348 15.7112 8.02356 16.086 8.01523C16.1693 8.01523 16.3526 8.03189 16.4775 8.13185C16.5775 8.21515 16.6025 8.32343 16.6191 8.40673C16.6358 8.49003 16.6525 8.66496 16.6358 8.79824C16.4859 10.3809 15.8361 14.221 15.5029 15.9869C15.3613 16.7366 15.0864 16.9865 14.8199 17.0115C14.2368 17.0615 13.7953 16.6283 13.2372 16.2618C12.3542 15.687 11.8628 15.3288 11.0048 14.7624C10.0136 14.1127 10.655 13.7545 11.2214 13.1714C11.3713 13.0215 13.9286 10.6891 13.9786 10.4809C13.9869 10.4559 13.9869 10.3559 13.9286 10.3059C13.8703 10.256 13.787 10.2726 13.7203 10.2893C13.6287 10.3059 12.2293 11.2389 9.50543 13.0798C9.1056 13.3547 8.74741 13.4879 8.42255 13.4796C8.06437 13.4713 7.38132 13.2797 6.86487 13.1131C6.24013 12.9132 5.74033 12.8049 5.78198 12.455C5.80697 12.2718 6.05687 12.0885 6.52334 11.8969Z" fill="white"/>
</svg>
