<svg width="24" height="24" viewBox="0 0 24 24" fill="none" xmlns="http://www.w3.org/2000/svg">
<rect x="4" y="5" width="8" height="2" rx="1" fill="#1F1F1F"/>
<rect x="4" y="17" width="8" height="2" rx="1" fill="#1F1F1F"/>
<path d="M5 13H17.175L15.325 14.85C15.1417 15.0333 15.0458 15.2625 15.0375 15.5375C15.0292 15.8125 15.1167 16.05 15.3 16.25C15.5 16.45 15.7375 16.5542 16.0125 16.5625C16.2875 16.5708 16.525 16.475 16.725 16.275L20.3 12.7C20.5 12.5 20.6 12.2667 20.6 12C20.6 11.7333 20.5 11.5 20.3 11.3L16.725 7.72501C16.525 7.52501 16.2833 7.42918 16 7.43751C15.7167 7.44585 15.4833 7.55001 15.3 7.75001C15.1167 7.95001 15.025 8.18335 15.025 8.45001C15.025 8.71668 15.1167 8.94168 15.3 9.12501L17.175 11H5C4.71667 11 4.47917 11.0958 4.2875 11.2875C4.09584 11.4792 4 11.7167 4 12C4 12.2833 4.09584 12.5208 4.2875 12.7125C4.47917 12.9042 4.71667 13 5 13Z" fill="#1F1F1F"/>
</svg>
