<svg width="24" height="24" viewBox="0 0 24 24" fill="none" xmlns="http://www.w3.org/2000/svg">
<path d="M5 13C4.71667 13 4.47917 12.9042 4.2875 12.7125C4.09583 12.5208 4 12.2833 4 12C4 11.7167 4.09583 11.4792 4.2875 11.2875C4.47917 11.0958 4.71667 11 5 11H17.25C18.3 11 19.1875 11.3625 19.9125 12.0875C20.6375 12.8125 21 13.7 21 14.75C21 15.8 20.6375 16.6875 19.9125 17.4125C19.1875 18.1375 18.3 18.5 17.25 18.5H14.85L15.4 19.05C15.6 19.25 15.6958 19.4833 15.6875 19.75C15.6792 20.0167 15.5833 20.25 15.4 20.45C15.2 20.65 14.9625 20.7542 14.6875 20.7625C14.4125 20.7708 14.175 20.675 13.975 20.475L11.7 18.2C11.6 18.1 11.5292 17.9917 11.4875 17.875C11.4458 17.7583 11.425 17.6333 11.425 17.5C11.425 17.3667 11.4458 17.2417 11.4875 17.125C11.5292 17.0083 11.6 16.9 11.7 16.8L13.975 14.525C14.175 14.325 14.4125 14.225 14.6875 14.225C14.9625 14.225 15.2 14.325 15.4 14.525C15.5833 14.725 15.6792 14.9625 15.6875 15.2375C15.6958 15.5125 15.6 15.75 15.4 15.95L14.85 16.5H17.25C17.7333 16.5 18.1458 16.3292 18.4875 15.9875C18.8292 15.6458 19 15.2333 19 14.75C19 14.2667 18.8292 13.8542 18.4875 13.5125C18.1458 13.1708 17.7333 13 17.25 13H5Z" fill="#1F1F1F"/>
<rect x="4" y="5" width="16" height="2" rx="1" fill="#1F1F1F"/>
<rect x="4" y="17" width="5" height="2" rx="1" fill="#1F1F1F"/>
</svg>
