<svg width="24" height="24" viewBox="0 0 24 24" fill="none" xmlns="http://www.w3.org/2000/svg">
<g clip-path="url(#clip0_118_47)">
<circle cx="12" cy="12" r="9" fill="white"/>
<path fill-rule="evenodd" clip-rule="evenodd" d="M2 12C2 10.0222 2.58649 8.08879 3.6853 6.4443C4.78412 4.79981 6.3459 3.51809 8.17316 2.76121C10.0004 2.00433 12.0111 1.8063 13.9509 2.19215C15.8907 2.578 17.6725 3.53041 19.0711 4.92894C20.4696 6.32746 21.422 8.10929 21.8078 10.0491C22.1937 11.9889 21.9957 13.9996 21.2388 15.8268C20.4819 17.6541 19.2002 19.2159 17.5557 20.3147C15.9112 21.4135 13.9778 22 12 22C10.6868 22 9.38642 21.7413 8.17316 21.2388C6.95991 20.7362 5.85752 19.9997 4.92893 19.0711C3.05357 17.1957 2 14.6522 2 12ZM17.0202 13.0073L18.0469 12.5481V12.2328H12.4656V12.519L13.5554 12.9006V19.439C14.9669 19.1447 16.443 18.2862 17.0202 17.7365V13.0073ZM12.8989 4.66451H12.9297V4.34115C9.4616 4.10833 4.72433 6.69362 4.79224 12.0081C4.72433 17.308 9.4616 19.8917 12.9297 19.6605V19.3371H12.8989C10.5853 19.3371 9.26111 16.2183 9.3274 11.9952C9.26111 7.78497 10.5853 4.66451 12.8989 4.66451ZM17.1156 6.05659C16.5352 5.42442 14.9846 4.53355 13.6281 4.3266V4.64996L16.7825 8.97818H17.1156V6.05659Z" fill="#1F2E60"/>
</g>
<defs>
<clipPath id="clip0_118_47">
<rect width="24" height="24" fill="white"/>
</clipPath>
</defs>
</svg>
