<svg width="24" height="24" viewBox="0 0 24 24" fill="none" xmlns="http://www.w3.org/2000/svg">
<path d="M7 15V9C7 8.71666 7.09584 8.47916 7.2875 8.2875C7.47917 8.09583 7.71667 8 8 8C8.28334 8 8.52084 8.09583 8.7125 8.2875C8.90417 8.47916 9 8.71666 9 9V15C9 15.2833 8.90417 15.5208 8.7125 15.7125C8.52084 15.9042 8.28334 16 8 16C7.71667 16 7.47917 15.9042 7.2875 15.7125C7.09584 15.5208 7 15.2833 7 15ZM11 21V3C11 2.71667 11.0958 2.47917 11.2875 2.2875C11.4792 2.09583 11.7167 2 12 2C12.2833 2 12.5208 2.09583 12.7125 2.2875C12.9042 2.47917 13 2.71667 13 3V21C13 21.2833 12.9042 21.5208 12.7125 21.7125C12.5208 21.9042 12.2833 22 12 22C11.7167 22 11.4792 21.9042 11.2875 21.7125C11.0958 21.5208 11 21.2833 11 21ZM3 13L3 11C3 10.7167 3.09583 10.4792 3.2875 10.2875C3.47917 10.0958 3.71667 10 4 10C4.28333 10 4.52083 10.0958 4.7125 10.2875C4.90417 10.4792 5 10.7167 5 11L5 13C5 13.2833 4.90417 13.5208 4.7125 13.7125C4.52084 13.9042 4.28334 14 4 14C3.71667 14 3.47917 13.9042 3.2875 13.7125C3.09584 13.5208 3 13.2833 3 13ZM15 18V6C15 5.71667 15.0958 5.47917 15.2875 5.2875C15.4792 5.09583 15.7167 5 16 5C16.2833 5 16.5208 5.09583 16.7125 5.2875C16.9042 5.47917 17 5.71667 17 6V18C17 18.2833 16.9042 18.5208 16.7125 18.7125C16.5208 18.9042 16.2833 19 16 19C15.7167 19 15.4792 18.9042 15.2875 18.7125C15.0958 18.5208 15 18.2833 15 18ZM19 14V10C19 9.71666 19.0958 9.47916 19.2875 9.2875C19.4792 9.09583 19.7167 9 20 9C20.2833 9 20.5208 9.09583 20.7125 9.2875C20.9042 9.47916 21 9.71666 21 10V14C21 14.2833 20.9042 14.5208 20.7125 14.7125C20.5208 14.9042 20.2833 15 20 15C19.7167 15 19.4792 14.9042 19.2875 14.7125C19.0958 14.5208 19 14.2833 19 14Z" fill="#1F1F1F"/>
</svg>
