<svg width="24" height="24" viewBox="0 0 24 24" fill="none" xmlns="http://www.w3.org/2000/svg">
<path d="M13 20V21C13 21.2833 12.9042 21.5208 12.7125 21.7125C12.5208 21.9042 12.2833 22 12 22C11.7167 22 11.4792 21.9042 11.2875 21.7125C11.0958 21.5208 11 21.2833 11 21V17C11 16.7167 11.0958 16.4792 11.2875 16.2875C11.4792 16.0958 11.7167 16 12 16C12.2833 16 12.5208 16.0958 12.7125 16.2875C12.9042 16.4792 13 16.7167 13 17V18H20C20.2833 18 20.5208 18.0958 20.7125 18.2875C20.9042 18.4792 21 18.7167 21 19C21 19.2833 20.9042 19.5208 20.7125 19.7125C20.5208 19.9042 20.2833 20 20 20H13ZM4 20C3.71667 20 3.47917 19.9042 3.2875 19.7125C3.09583 19.5208 3 19.2833 3 19C3 18.7167 3.09583 18.4792 3.2875 18.2875C3.47917 18.0958 3.71667 18 4 18H8C8.28333 18 8.52083 18.0958 8.7125 18.2875C8.90417 18.4792 9 18.7167 9 19C9 19.2833 8.90417 19.5208 8.7125 19.7125C8.52083 19.9042 8.28333 20 8 20H4ZM9.6 10.925H14.425L15.275 13.375C15.3417 13.5583 15.4583 13.7083 15.625 13.825C15.7917 13.9417 15.975 14 16.175 14C16.5083 14 16.775 13.8583 16.975 13.575C17.175 13.2917 17.2083 12.9917 17.075 12.675L13.325 2.65C13.2417 2.45 13.1167 2.29167 12.95 2.175C12.7833 2.05833 12.5917 2 12.375 2H11.625C11.4083 2 11.2167 2.05833 11.05 2.175C10.8833 2.29167 10.7583 2.45 10.675 2.65L6.9 12.7C6.78333 13.0167 6.82083 13.3125 7.0125 13.5875C7.20417 13.8625 7.46667 14 7.8 14C8.01667 14 8.20417 13.9417 8.3625 13.825C8.52083 13.7083 8.64167 13.55 8.725 13.35L9.6 10.925ZM10.2 9.2L11.95 4.225H12.05L13.8 9.2H10.2Z" fill="#1F1F1F"/>
</svg>
