<svg width="24" height="24" viewBox="0 0 24 24" fill="none" xmlns="http://www.w3.org/2000/svg">
<path d="M20.759 7.50588C19.257 8.41176 18.3293 9.96471 18.3293 11.6902C18.3293 13.6314 19.5221 15.4 21.3333 16.1333C20.9799 17.2549 20.4498 18.2902 19.7871 19.2392C18.8153 20.5765 17.7992 21.9569 16.2972 21.9569C14.7952 21.9569 14.3534 21.0941 12.5863 21.0941C10.8635 21.0941 10.245 22 8.83132 22C7.41767 22 6.44578 20.749 5.34137 19.1961C3.88353 17.0392 3.04418 14.5373 3 11.9059C3 7.63529 5.82731 5.34902 8.65462 5.34902C10.1566 5.34902 11.3936 6.29804 12.3213 6.29804C13.2048 6.29804 14.6185 5.30588 16.2972 5.30588C18.0643 5.26275 19.743 6.08235 20.759 7.50588ZM15.502 3.49412C16.253 2.63137 16.6506 1.55294 16.6948 0.431373C16.6948 0.301961 16.6948 0.129412 16.6506 0C15.3695 0.129412 14.1767 0.733333 13.3373 1.68235C12.5863 2.50196 12.1446 3.53726 12.1004 4.65882C12.1004 4.78824 12.1004 4.91765 12.1446 5.04706C12.2329 5.04706 12.3655 5.0902 12.4538 5.0902C13.6466 5.00392 14.751 4.4 15.502 3.49412Z" fill="#1F1F1F"/>
</svg>
