<svg width="24" height="24" viewBox="0 0 24 24" fill="none" xmlns="http://www.w3.org/2000/svg">
<path d="M10.8 12L14.7 15.9C14.8833 16.0833 14.975 16.3167 14.975 16.6C14.975 16.8833 14.8833 17.1167 14.7 17.3C14.5167 17.4833 14.2833 17.575 14 17.575C13.7167 17.575 13.4833 17.4833 13.3 17.3L8.7 12.7C8.6 12.6 8.52917 12.4917 8.4875 12.375C8.44584 12.2583 8.425 12.1333 8.425 12C8.425 11.8667 8.44584 11.7417 8.4875 11.625C8.52917 11.5083 8.6 11.4 8.7 11.3L13.3 6.69999C13.4833 6.51665 13.7167 6.42499 14 6.42499C14.2833 6.42499 14.5167 6.51665 14.7 6.69999C14.8833 6.88332 14.975 7.11665 14.975 7.39999C14.975 7.68332 14.8833 7.91665 14.7 8.09999L10.8 12Z" fill="#1F1F1F"/>
</svg>
