<svg width="24" height="24" viewBox="0 0 24 24" fill="none" xmlns="http://www.w3.org/2000/svg">
<g clip-path="url(#clip0_214_75)">
<g clip-path="url(#clip1_214_75)">
<path d="M24 4.51199H0V19.488H24V4.51199Z" fill="#DE0023"/>
<path d="M1.82401 12L6.72 7.104H9.792L6.48 10.704L10.608 10.608L10.704 7.104H13.296L13.392 10.608H17.424L17.52 10.704L14.208 7.104H17.28L22.176 12L17.28 16.944H14.208L17.52 13.296L13.392 13.392L13.296 16.944H10.704L10.608 13.392L6.48 13.296L9.792 16.944H6.72L1.82401 12Z" fill="white"/>
<g clip-path="url(#clip2_214_75)">
<path d="M0 0H24V24H0V0Z" fill="white"/>
<path fill-rule="evenodd" clip-rule="evenodd" d="M10.3357 7.264C10.3075 7.3488 10.3299 7.38293 10.3728 7.448C10.4013 7.49067 10.4387 7.54747 10.4763 7.64213H10.5232C10.992 7.50027 11.4608 7.4056 11.9765 7.4056C12.4923 7.4056 12.9611 7.50027 13.4299 7.64213H13.4768C13.5136 7.5488 13.5507 7.4848 13.5792 7.436C13.6227 7.36107 13.6459 7.32107 13.6173 7.26373C13.5987 7.16907 13.5648 7.0744 13.5312 6.97973C13.4805 6.83787 13.4299 6.69627 13.4299 6.55413C13.4299 6.436 13.4885 6.2704 13.5472 6.1048C13.6059 5.93947 13.6645 5.77387 13.6645 5.65547C13.6645 5.5384 13.4128 5.3488 13.1544 5.15413C12.9955 5.03413 12.8339 4.91227 12.7267 4.804C12.6216 4.69787 12.5165 4.55893 12.416 4.42613C12.248 4.20427 12.0941 4 11.9765 4H11.9296C11.7909 4 11.6523 4.18187 11.4944 4.38933C11.3851 4.53253 11.2667 4.688 11.1325 4.80427C11.0256 4.91227 10.8637 5.03413 10.7048 5.15413C10.4464 5.3488 10.1949 5.5384 10.1949 5.65547C10.1949 5.7408 10.2424 5.87333 10.2944 6.01947C10.3584 6.19867 10.4291 6.39813 10.4291 6.55413C10.4963 6.7232 10.4437 6.89227 10.3912 7.0608C10.3699 7.12853 10.3488 7.19653 10.3357 7.264ZM6.58507 10.2907C6.96 10.2907 7.28827 10.3381 7.52267 10.48C7.804 9.8176 8.17867 9.25013 8.69467 8.77707C7.6632 7.8784 5.8816 7.78373 5.69414 7.9256C5.50667 8.06773 5.50667 10.2909 6.5848 10.2909L6.58507 10.2907ZM16.4773 10.48C16.1957 9.8176 15.7741 9.25013 15.3051 8.77707C16.3365 7.8784 18.1181 7.78373 18.3059 7.9256C18.4933 8.06773 18.4933 10.3381 17.4152 10.2909C17.04 10.2909 16.7587 10.3381 16.4773 10.48ZM16.2899 12.7976C16.2899 12.0883 16.1491 11.4259 15.9147 10.8109C15.68 10.2435 15.3051 9.72293 14.8835 9.29733C14.18 8.588 13.2893 8.20933 12.3517 8.11493H11.6952C10.7576 8.2096 9.86667 8.588 9.16347 9.29733C8.7416 9.7232 8.36667 10.2432 8.132 10.8112C7.85067 11.4259 7.75707 12.088 7.75707 12.7979C7.75707 13.4597 7.8976 14.0747 8.132 14.6896C8.36667 15.2099 8.64774 15.6832 9.02267 16.1088C9.63227 16.7709 10.4293 17.244 11.2733 17.4331C11.5075 17.4805 11.7891 17.5277 12.0235 17.5277H12.3515C13.3832 17.4331 14.3677 16.96 15.0709 16.156C15.4459 15.7304 15.7269 15.2573 15.9616 14.7373C16.1491 14.0747 16.2896 13.4125 16.2896 12.7976H16.2899ZM16.524 14.9736C16.2899 15.5885 15.9147 16.156 15.4456 16.6291C15.4928 16.7712 15.5397 17.0077 15.5864 17.244C15.6803 18.2845 17.9304 18.1427 18.0243 17.9533C18.1651 17.7643 17.8837 15.6832 16.524 14.9736ZM12.0235 18.1429C12.2581 18.1429 12.4923 18.1429 12.7267 18.0955C12.6797 18.9469 12.9141 19.7037 13.7581 19.7987H13.852C13.4768 19.9403 13.1019 20.0349 12.7267 19.9877C11.836 19.8459 11.1795 18.9944 11.1795 18.0483C11.4608 18.0955 11.7421 18.1429 12.0235 18.1429ZM8.36667 17.244C8.2728 18.332 6.06907 18.1427 5.97547 17.9061C5.8816 17.7168 6.11627 15.6832 7.4288 14.9736C7.71014 15.5885 8.0384 16.1563 8.5072 16.6291C8.46027 16.7712 8.41334 16.9603 8.36667 17.244Z" fill="black"/>
</g>
</g>
</g>
<defs>
<clipPath id="clip0_214_75">
<rect width="24" height="24" fill="white"/>
</clipPath>
<clipPath id="clip1_214_75">
<rect width="24" height="24" fill="white"/>
</clipPath>
<clipPath id="clip2_214_75">
<rect width="24" height="24" fill="white"/>
</clipPath>
</defs>
</svg>
