<svg width="24" height="24" viewBox="0 0 24 24" fill="none" xmlns="http://www.w3.org/2000/svg">
<path d="M11.0065 7.81998L6.10652 12.72C5.90652 12.92 5.67318 13.0158 5.40652 13.0075C5.13985 12.9991 4.90652 12.895 4.70652 12.695C4.52318 12.495 4.42735 12.2616 4.41902 11.995C4.41068 11.7283 4.50652 11.495 4.70652 11.295L11.3065 4.69498C11.4065 4.59498 11.5149 4.52415 11.6315 4.48248C11.7482 4.44082 11.8732 4.41998 12.0065 4.41998C12.1399 4.41998 12.2649 4.44082 12.3815 4.48248C12.4982 4.52415 12.6065 4.59498 12.7065 4.69498L19.3065 11.295C19.4899 11.4783 19.5815 11.7075 19.5815 11.9825C19.5815 12.2575 19.4899 12.495 19.3065 12.695C19.1065 12.895 18.869 12.995 18.594 12.995C18.319 12.995 18.0815 12.895 17.8815 12.695L13.0065 7.81998V18.995C13.0065 19.2783 12.9107 19.5158 12.719 19.7075C12.5274 19.8991 12.2899 19.995 12.0065 19.995C11.7232 19.995 11.4857 19.8991 11.294 19.7075C11.1024 19.5158 11.0065 19.2783 11.0065 18.995V7.81998Z" fill="#1F1F1F"/>
</svg>
