<svg width="24" height="24" viewBox="0 0 24 24" fill="none" xmlns="http://www.w3.org/2000/svg">
<path d="M4 20C3.45 20 2.97917 19.8042 2.5875 19.4125C2.19583 19.0208 2 18.55 2 18V6C2 5.45 2.19583 4.97917 2.5875 4.5875C2.97917 4.19583 3.45 4 4 4H20C20.55 4 21.0208 4.19583 21.4125 4.5875C21.8042 4.97917 22 5.45 22 6V18C22 18.55 21.8042 19.0208 21.4125 19.4125C21.0208 19.8042 20.55 20 20 20H4ZM20 6H4V18H20V6ZM9 13.8V10.2C9 9.96667 8.9 9.80833 8.7 9.725C8.5 9.64167 8.31667 9.68333 8.15 9.85L6.7 11.3C6.5 11.5 6.4 11.7333 6.4 12C6.4 12.2667 6.5 12.5 6.7 12.7L8.15 14.15C8.31667 14.3167 8.5 14.3583 8.7 14.275C8.9 14.1917 9 14.0333 9 13.8ZM17.3 11.3L15.85 9.85C15.6833 9.68333 15.5 9.64167 15.3 9.725C15.1 9.80833 15 9.96667 15 10.2V13.8C15 14.0333 15.1 14.1917 15.3 14.275C15.5 14.3583 15.6833 14.3167 15.85 14.15L17.3 12.7C17.5 12.5 17.6 12.2667 17.6 12C17.6 11.7333 17.5 11.5 17.3 11.3Z" fill="#1F1F1F"/>
</svg>
