<svg width="24" height="24" viewBox="0 0 24 24" fill="none" xmlns="http://www.w3.org/2000/svg">
<g clip-path="url(#clip0_88_82)">
<path d="M3.36364 20H6.54545V11.7576L2 8.12122V18.5455C2 19.3503 2.61136 20 3.36364 20Z" fill="#4285F4"/>
<path d="M17.4545 20H20.6364C21.3909 20 22 19.3479 22 18.5455V8.12122L17.4545 11.7576" fill="#34A853"/>
<path d="M17.4545 5.45455V11.7576L22 8.12122V6.18182C22 4.38304 20.075 3.35758 18.7273 4.43637" fill="#FBBC04"/>
<path d="M6.54546 11.7576V5.45456L12 9.8182L17.4545 5.45456V11.7576L12 16.1212" fill="#EA4335"/>
<path d="M2 6.18182V8.12122L6.54545 11.7576V5.45455L5.27273 4.43637C3.92273 3.35758 2 4.38304 2 6.18182Z" fill="#C5221F"/>
</g>
<defs>
<clipPath id="clip0_88_82">
<rect width="20" height="16" fill="white" transform="translate(2 4)"/>
</clipPath>
</defs>
</svg>
