<svg width="24" height="24" viewBox="0 0 24 24" fill="none" xmlns="http://www.w3.org/2000/svg">
<path fill-rule="evenodd" clip-rule="evenodd" d="M17 14.0001C19.2091 14.0001 21 15.791 21 18.0001C21 20.2092 19.2091 22.0001 17 22.0001C14.8488 22.0001 13.0945 20.3018 13.0039 18.1729C12.6905 18.0617 12.3532 18.0001 12 18.0001C11.6465 18.0001 11.3087 18.0615 10.9951 18.1729C10.9045 20.3018 9.15118 22.0001 7 22.0001C4.79089 22.0001 3.00005 20.2092 3 18.0001C3 15.791 4.79086 14.0001 7 14.0001C8.56461 14.0001 9.91784 14.8991 10.5752 16.2081C11.0274 16.0737 11.5055 16.0001 12 16.0001C12.4941 16.0001 12.9719 16.0739 13.4238 16.2081C14.0811 14.8989 15.4352 14.0001 17 14.0001ZM7 16.0001C5.89543 16.0001 5 16.8955 5 18.0001C5.00005 19.1046 5.89546 20.0001 7 20.0001C8.10454 20.0001 8.99995 19.1046 9 18.0001C9 16.8955 8.10457 16.0001 7 16.0001ZM17 16.0001C15.8954 16.0001 15 16.8955 15 18.0001C15 19.1046 15.8955 20.0001 17 20.0001C18.1045 20.0001 19 19.1046 19 18.0001C19 16.8955 18.1046 16.0001 17 16.0001Z" fill="#1F1F1F"/>
<path fill-rule="evenodd" clip-rule="evenodd" d="M14.8594 3.11337C16.0131 2.70956 17.2566 3.42625 17.4854 4.62704L18.6992 11.0001H21C21.5523 11.0001 22 11.4478 22 12.0001C22 12.5523 21.5523 13.0001 21 13.0001H3C2.44775 13.0001 2.00005 12.5523 2 12.0001C2 11.4478 2.44772 11.0001 3 11.0001H5.30078L6.51465 4.62704C6.74337 3.42625 7.98687 2.70956 9.14062 3.11337L12 4.11337L14.8594 3.11337ZM12 6.23349L8.47949 5.00107L7.33691 11.0001H16.6631L15.5205 5.00107L12 6.23349Z" fill="#1F1F1F"/>
</svg>
