<svg width="24" height="24" viewBox="0 0 24 24" fill="none" xmlns="http://www.w3.org/2000/svg">
<path d="M15.625 12.775L13.85 11H15C15.2833 11 15.5208 11.0958 15.7125 11.2875C15.9042 11.4791 16 11.7166 16 12C16 12.1666 15.9667 12.3166 15.9 12.45C15.8333 12.5833 15.7417 12.6916 15.625 12.775ZM20.5 21.9C20.3167 22.0833 20.0833 22.175 19.8 22.175C19.5167 22.175 19.2833 22.0833 19.1 21.9L2.10001 4.89998C1.91668 4.71664 1.82501 4.48331 1.82501 4.19998C1.82501 3.91664 1.91668 3.68331 2.10001 3.49998C2.28335 3.31664 2.51668 3.22498 2.80001 3.22498C3.08335 3.22498 3.31668 3.31664 3.50001 3.49998L20.5 20.5C20.6833 20.6833 20.775 20.9166 20.775 21.2C20.775 21.4833 20.6833 21.7166 20.5 21.9ZM7.00001 17C5.61668 17 4.43751 16.5125 3.46251 15.5375C2.48751 14.5625 2.00001 13.3833 2.00001 12C2.00001 10.85 2.35001 9.82498 3.05001 8.92498C3.75001 8.02498 4.65001 7.43331 5.75001 7.14998L7.60001 8.99998H7.00001C6.16668 8.99998 5.45835 9.29164 4.87501 9.87498C4.29168 10.4583 4.00001 11.1666 4.00001 12C4.00001 12.8333 4.29168 13.5416 4.87501 14.125C5.45835 14.7083 6.16668 15 7.00001 15H10C10.2833 15 10.5208 15.0958 10.7125 15.2875C10.9042 15.4791 11 15.7166 11 16C11 16.2833 10.9042 16.5208 10.7125 16.7125C10.5208 16.9041 10.2833 17 10 17H7.00001ZM9.00001 13C8.71668 13 8.47918 12.9041 8.28751 12.7125C8.09585 12.5208 8.00001 12.2833 8.00001 12C8.00001 11.7166 8.09585 11.4791 8.28751 11.2875C8.47918 11.0958 8.71668 11 9.00001 11H9.62501L11.6 13H9.00001ZM18.5 15.8C18.35 15.5666 18.2958 15.3166 18.3375 15.05C18.3792 14.7833 18.5167 14.575 18.75 14.425C19.1333 14.1416 19.4375 13.7916 19.6625 13.375C19.8875 12.9583 20 12.5 20 12C20 11.1666 19.7083 10.4583 19.125 9.87498C18.5417 9.29164 17.8333 8.99998 17 8.99998H14C13.7167 8.99998 13.4792 8.90414 13.2875 8.71248C13.0958 8.52081 13 8.28331 13 7.99998C13 7.71664 13.0958 7.47914 13.2875 7.28748C13.4792 7.09581 13.7167 6.99998 14 6.99998H17C18.3833 6.99998 19.5625 7.48748 20.5375 8.46248C21.5125 9.43748 22 10.6166 22 12C22 12.8166 21.8125 13.5791 21.4375 14.2875C21.0625 14.9958 20.5417 15.5833 19.875 16.05C19.6417 16.2 19.3917 16.2541 19.125 16.2125C18.8583 16.1708 18.65 16.0333 18.5 15.8Z" fill="#1F1F1F"/>
</svg>
