<svg width="24" height="24" viewBox="0 0 24 24" fill="none" xmlns="http://www.w3.org/2000/svg">
<path d="M6 4V10.025V10V20V4ZM6 22C5.45 22 4.97917 21.8042 4.5875 21.4125C4.19583 21.0208 4 20.55 4 20V4C4 3.45 4.19583 2.97917 4.5875 2.5875C4.97917 2.19583 5.45 2 6 2H13.175C13.4417 2 13.6958 2.05 13.9375 2.15C14.1792 2.25 14.3917 2.39167 14.575 2.575L19.425 7.425C19.6083 7.60833 19.75 7.82083 19.85 8.0625C19.95 8.30417 20 8.55833 20 8.825V10C20 10.2833 19.9042 10.5167 19.7125 10.7C19.5208 10.8833 19.2833 10.975 19 10.975C18.7167 10.975 18.4792 10.8792 18.2875 10.6875C18.0958 10.4958 18 10.2583 18 9.975V9H14C13.7167 9 13.4792 8.90417 13.2875 8.7125C13.0958 8.52083 13 8.28333 13 8V4H6V20H12C12.2833 20 12.5208 20.0958 12.7125 20.2875C12.9042 20.4792 13 20.7167 13 21C13 21.2833 12.9042 21.5208 12.7125 21.7125C12.5208 21.9042 12.2833 22 12 22H6Z" fill="#1F1F1F"/>
<path d="M9 13.5C9 13.2239 9.22386 13 9.5 13H10V17.5C10 17.7761 9.77614 18 9.5 18C9.22386 18 9 17.7761 9 17.5V13.5Z" fill="#1F1F1F"/>
<path d="M17 13.5C17 13.2239 17.2239 13 17.5 13H18V17.5C18 17.7761 17.7761 18 17.5 18C17.2239 18 17 17.7761 17 17.5V13.5Z" fill="#1F1F1F"/>
<path d="M13 13.5C13 13.2239 13.2239 13 13.5 13H14V18H13.5C13.2239 18 13 17.7761 13 17.5V13.5Z" fill="#1F1F1F"/>
<path d="M16 17C16 17.5523 15.5523 18 15 18L15 13C15.5523 13 16 13.4477 16 14L16 17Z" fill="#1F1F1F"/>
<path d="M11 13H11.5C11.7761 13 12 13.2239 12 13.5V15.5C12 15.7761 11.7761 16 11.5 16H11V13Z" fill="#1F1F1F"/>
<path d="M10 14V13H11V14L10 14Z" fill="#1F1F1F"/>
<path d="M18 14V13L19.5 13C19.7761 13 20 13.2239 20 13.5C20 13.7761 19.7761 14 19.5 14L18 14Z" fill="#1F1F1F"/>
<path d="M18 16V15H18.5C18.7761 15 19 15.2239 19 15.5C19 15.7761 18.7761 16 18.5 16H18Z" fill="#1F1F1F"/>
<path d="M14 14V13L15 13L15 14L14 14Z" fill="#1F1F1F"/>
<path d="M14 18V17H15V18H14Z" fill="#1F1F1F"/>
<path d="M10 16L10 15H11V16H10Z" fill="#1F1F1F"/>
</svg>
