<svg width="24" height="24" viewBox="0 0 24 24" fill="none" xmlns="http://www.w3.org/2000/svg">
<path d="M6 4V10.025V10V20V4ZM6 22C5.45 22 4.97917 21.8042 4.5875 21.4125C4.19583 21.0208 4 20.55 4 20V4C4 3.45 4.19583 2.97917 4.5875 2.5875C4.97917 2.19583 5.45 2 6 2H13.175C13.4417 2 13.6958 2.05 13.9375 2.15C14.1792 2.25 14.3917 2.39167 14.575 2.575L19.425 7.425C19.6083 7.60833 19.75 7.82083 19.85 8.0625C19.95 8.30417 20 8.55833 20 8.825V10C20 10.2833 19.9042 10.5167 19.7125 10.7C19.5208 10.8833 19.2833 10.975 19 10.975C18.7167 10.975 18.4792 10.8792 18.2875 10.6875C18.0958 10.4958 18 10.2583 18 9.975V9H14C13.7167 9 13.4792 8.90417 13.2875 8.7125C13.0958 8.52083 13 8.28333 13 8V4H6V20H12C12.2833 20 12.5208 20.0958 12.7125 20.2875C12.9042 20.4792 13 20.7167 13 21C13 21.2833 12.9042 21.5208 12.7125 21.7125C12.5208 21.9042 12.2833 22 12 22H6Z" fill="#1F1F1F"/>
<path d="M9 13.5033C9 13.2271 9.22386 13.0033 9.5 13.0033H10V17.5033C10 17.7794 9.77614 18.0033 9.5 18.0033C9.22386 18.0033 9 17.7794 9 17.5033V13.5033Z" fill="#1F1F1F"/>
<path d="M13 13.5033C13 13.2271 13.2239 13.0033 13.5 13.0033H14V17.5033C14 17.7794 13.7761 18.0033 13.5 18.0033C13.2239 18.0033 13 17.7794 13 17.5033V13.5033Z" fill="#1F1F1F"/>
<path d="M17 13.5033C17 13.2271 17.2239 13.0033 17.5 13.0033H18V14.0033H17.5C17.2239 14.0033 17 13.7794 17 13.5033Z" fill="#1F1F1F"/>
<path d="M20 13.5065C19.9982 13.7827 19.7729 14.0051 19.4967 14.0033L18.9967 14L19.0033 13L19.5033 13.0033C19.7794 13.0051 20.0018 13.2304 20 13.5065Z" fill="#1F1F1F"/>
<path d="M18 13.0033H19V17.5033C19 17.7794 18.7761 18.0033 18.5 18.0033C18.2239 18.0033 18 17.7794 18 17.5033V13.0033Z" fill="#1F1F1F"/>
<path d="M11 13.0033H11.5C11.7761 13.0033 12 13.2271 12 13.5033V15.5033C12 15.7794 11.7761 16.0033 11.5 16.0033H11V13.0033Z" fill="#1F1F1F"/>
<path d="M10 14.0033V13.0033H11V14.0033L10 14.0033Z" fill="#1F1F1F"/>
<path d="M15 13.0033H15.5C15.7761 13.0033 16 13.2271 16 13.5033V15.5033C16 15.7794 15.7761 16.0033 15.5 16.0033H15V13.0033Z" fill="#1F1F1F"/>
<path d="M14 14.0033V13.0033H15V14.0033L14 14.0033Z" fill="#1F1F1F"/>
<path d="M10 16.0033L10 15.0033H11V16.0033H10Z" fill="#1F1F1F"/>
<path d="M14 16.0033V15.0033H15V16.0033H14Z" fill="#1F1F1F"/>
</svg>
