<svg width="24" height="24" viewBox="0 0 24 24" fill="none" xmlns="http://www.w3.org/2000/svg">
<g clip-path="url(#clip0_215_33)">
<path d="M12.9888 10.3114H13.8204V14.7903L11.0112 12.1588V14.6546H10.1795V10.187L12.9888 12.8224V10.3114ZM8.86461 12.4906C8.86461 13.7837 7.81948 14.8357 6.53479 14.8357C5.2498 14.8357 4.20467 13.7837 4.20467 12.4906C4.20467 11.1975 5.2498 10.1455 6.53479 10.1455C7.81948 10.1455 8.86461 11.1975 8.86461 12.4906ZM8.01072 12.4906C8.01072 11.6612 7.34747 10.9863 6.53094 10.9863C5.7144 10.9863 5.05501 11.6612 5.05501 12.4906C5.05501 13.32 5.71796 13.9949 6.53094 13.9949C7.34747 13.9949 8.01042 13.32 8.01042 12.4906H8.01072ZM2.78508 12.5282C2.56389 12.3584 2.27185 12.223 1.84105 12.0834C0.998127 11.8119 0.998127 11.6009 0.998127 11.4953C0.998127 11.2539 1.26408 11.0051 1.71356 11.0051C2.09188 11.0051 2.38422 11.1937 2.49274 11.2766L2.55263 11.322L3.22329 10.8655L3.14828 10.7789C3.12604 10.7524 2.60896 10.1455 1.71 10.1455C1.2789 10.1455 0.882199 10.2852 0.593714 10.5376C0.30523 10.7903 0.140381 11.1373 0.140381 11.4989C0.140381 11.8838 0.309083 12.2078 0.638485 12.4605C0.859666 12.6299 1.15171 12.7657 1.58251 12.905C2.42543 13.1729 2.42543 13.3878 2.42543 13.4934C2.42543 13.7348 2.15948 13.9836 1.71 13.9836C1.33168 13.9836 1.03934 13.795 0.930823 13.7121L0.870933 13.6667L0.200271 14.1232L0.275284 14.2097C0.297818 14.236 0.814897 14.8393 1.71 14.8393C2.1408 14.8393 2.5378 14.6999 2.82629 14.4472C3.11477 14.1945 3.27933 13.8439 3.27933 13.4859C3.27933 13.1049 3.11477 12.7848 2.78508 12.5282ZM15.1428 12.5094C15.1428 11.2163 16.1879 10.1643 17.4729 10.1643C18.7576 10.1643 19.8027 11.2163 19.8027 12.5094C19.8027 13.8025 18.7576 14.8545 17.4729 14.8545C16.1879 14.8545 15.1428 13.8025 15.1428 12.5094ZM15.9931 12.5094C15.9931 13.3388 16.6561 14.0137 17.4691 14.0137C18.2856 14.0137 18.945 13.3388 18.945 12.5094C18.945 11.68 18.282 11.0048 17.4691 11.0048C16.6561 11.0048 15.9931 11.6797 15.9931 12.5091V12.5094ZM21.2188 12.4676C21.4397 12.6377 21.7317 12.7732 22.1628 12.9128C23.0054 13.1843 23.0054 13.3952 23.0054 13.5008C23.0054 13.7422 22.7395 13.991 22.29 13.991C21.9117 13.991 21.6196 13.8025 21.5108 13.7195L21.4509 13.6745L20.7806 14.1307L20.8553 14.2172C20.8778 14.2438 21.3949 14.8467 22.2903 14.8467C22.7208 14.8467 23.1178 14.7074 23.4063 14.4547C23.6948 14.2023 23.8596 13.8553 23.8596 13.4934C23.8596 13.1088 23.6909 12.7845 23.3615 12.5321C23.1403 12.3623 22.8483 12.2266 22.4175 12.0872C21.5746 11.8157 21.5746 11.6045 21.5746 11.4989C21.5746 11.2578 21.8405 11.009 22.29 11.009C22.6683 11.009 22.9607 11.1975 23.0692 11.2805L23.1291 11.3255L23.7997 10.8694L23.7247 10.7828C23.7022 10.7563 23.1851 10.1533 22.29 10.1533C21.8592 10.1533 21.4622 10.2926 21.1737 10.545C20.8852 10.7978 20.7207 11.1483 20.7207 11.5066C20.7242 11.8912 20.8891 12.2152 21.2188 12.4679V12.4676Z" fill="black"/>
</g>
<defs>
<clipPath id="clip0_215_33">
<rect width="24" height="5" fill="white" transform="translate(0 10)"/>
</clipPath>
</defs>
</svg>
