<svg width="24" height="24" viewBox="0 0 24 24" fill="none" xmlns="http://www.w3.org/2000/svg">
<g clip-path="url(#clip0_88_84)">
<path d="M12 22C17.5228 22 22 17.5228 22 12C22 6.47715 17.5228 2 12 2C6.47715 2 2 6.47715 2 12C2 17.5228 6.47715 22 12 22Z" fill="#27D045"/>
<path d="M17.0158 11.9072C17.0158 9.18338 14.8075 6.97532 12.0836 6.97532C9.35983 6.97537 7.15179 9.18341 7.15174 11.9072C7.15174 14.6311 9.3598 16.8393 12.0836 16.8394C14.8075 16.8394 17.0158 14.6311 17.0158 11.9072ZM17.9464 11.9072C17.9464 15.1451 15.3215 17.77 12.0836 17.77C8.84586 17.77 6.2211 15.145 6.2211 11.9072C6.22116 8.66947 8.84589 6.04473 12.0836 6.04468C15.3214 6.04468 17.9464 8.66944 17.9464 11.9072Z" fill="white"/>
<path d="M7.15138 14.9758L6.29526 18.0095L9.4406 17.1347L9.60809 16.1669L7.56082 16.8183L8.10056 14.8641L7.15138 14.9758Z" fill="white"/>
<path d="M7.52364 16.8371C7.52364 16.8185 8.17504 14.6595 8.17504 14.6595L9.73841 16.1299L7.52364 16.8371Z" fill="#27D045"/>
<path d="M9.75085 9.23364C9.56082 9.3655 9.39882 9.53373 9.27423 9.7286C9.14964 9.92347 9.06493 10.1411 9.025 10.3689C8.93194 11.0948 9.37862 11.8392 9.37862 11.8392C9.83171 12.5134 10.3697 13.1264 10.9792 13.6632C11.5124 14.0851 12.1178 14.4067 12.7659 14.6124C13.144 14.7633 13.5575 14.8021 13.957 14.724C14.3112 14.6268 14.6244 14.4179 14.8504 14.1285C14.9033 13.9968 14.9408 13.8594 14.9621 13.719C14.9834 13.5958 14.9834 13.4699 14.9621 13.3468C14.9435 13.2165 13.6034 12.6023 13.4731 12.6395C13.3429 12.6768 13.2312 12.9187 13.0823 13.1234C12.9334 13.3282 12.8776 13.4212 12.7287 13.4212C12.5798 13.4212 11.9284 13.1607 11.3142 12.6023C10.9634 12.2981 10.6892 11.9156 10.5139 11.4856C10.5139 11.4856 10.6256 11.3553 10.7745 11.1506C10.8903 11.0237 10.9734 10.8703 11.0164 10.7039C11.0164 10.6109 10.4953 9.28947 10.365 9.23364C10.1613 9.205 9.95458 9.205 9.75085 9.23364Z" fill="white"/>
</g>
<defs>
<clipPath id="clip0_88_84">
<rect width="20" height="20" fill="white" transform="translate(2 2)"/>
</clipPath>
</defs>
</svg>
