<svg width="150" height="40" viewBox="0 0 150 40" fill="none" xmlns="http://www.w3.org/2000/svg">
<g clip-path="url(#clip0_1697_21214)">
<path d="M58.7318 19.5535C57.8335 18.945 56.7032 18.3964 55.3407 17.8992C54.3307 17.5092 53.5184 17.1492 52.908 16.8192C52.2977 16.4892 51.8722 16.155 51.6229 15.8164C51.3737 15.4778 51.249 15.1007 51.249 14.6892C51.249 14.2992 51.3565 13.9478 51.5757 13.6392C51.7906 13.3307 52.0785 13.095 52.4267 12.9278C52.7791 12.765 53.1702 12.6792 53.6043 12.6792C54.2834 12.6792 54.9066 12.8764 55.461 13.2664C56.0198 13.6564 56.5055 14.2221 56.9181 14.9635L60.4467 12.8335C59.7461 11.475 58.8264 10.455 57.6917 9.77781C56.557 9.09638 55.2461 8.75781 53.759 8.75781C52.3751 8.75781 51.1631 9.01496 50.1186 9.52924C49.0742 10.0435 48.2662 10.755 47.686 11.6592C47.1057 12.5635 46.8178 13.605 46.8178 14.7792C46.8178 15.8721 47.0413 16.8278 47.484 17.6507C47.9267 18.4735 48.6143 19.2021 49.5427 19.8278C50.4711 20.4578 51.6401 21.0492 53.0413 21.6021C53.9696 21.9535 54.7347 22.2835 55.3321 22.5921C55.9295 22.9007 56.3679 23.235 56.6473 23.595C56.9267 23.955 57.0642 24.3707 57.0642 24.8464C57.0642 25.3607 56.931 25.8021 56.6602 26.175C56.3937 26.5435 56.0198 26.8307 55.547 27.0235C55.0699 27.2207 54.5456 27.3192 53.9653 27.3192C52.8307 27.3192 51.8808 27.0021 51.1158 26.3635C50.3507 25.725 49.8565 24.7692 49.6287 23.4921L45.292 24.5721C45.6229 26.5907 46.5341 28.2064 48.0341 29.4192C49.5298 30.6321 51.4553 31.2407 53.8106 31.2407C55.3364 31.2407 56.6774 30.9578 57.8206 30.3921C58.9682 29.8264 59.8579 29.0378 60.4983 28.0307C61.1387 27.0235 61.4567 25.8707 61.4567 24.5721C61.4567 23.4407 61.2247 22.4721 60.7605 21.6707C60.2963 20.8692 59.6129 20.1621 58.7146 19.5535H58.7318Z" fill="white"/>
<path d="M76.9554 24.2345L74.4797 15.5859H70.8565L68.3766 24.2988L65.9912 15.5859H61.4697L66.2405 30.8131H70.0829L72.6832 21.6417L75.3479 30.8131H79.1259L83.9267 15.5859H79.3752L76.9554 24.2345Z" fill="white"/>
<path d="M89.8105 15.5859H85.5684V30.8131H89.8105V15.5859Z" fill="white"/>
<path d="M89.9308 9.28125H85.5039V13.357H89.9308V9.28125Z" fill="white"/>
<path d="M102.554 22.272C101.966 21.912 101.342 21.6292 100.68 21.4234C100.019 21.2177 99.391 21.042 98.7893 20.8963C98.1489 20.7334 97.6417 20.5877 97.2721 20.4634C96.9025 20.3392 96.6317 20.202 96.4684 20.0477C96.3008 19.8934 96.2191 19.7049 96.2191 19.4777C96.2191 19.1692 96.391 18.9163 96.7306 18.7192C97.0701 18.522 97.5085 18.4277 98.0457 18.4277C98.6861 18.4277 99.2965 18.5777 99.8724 18.8734C100.448 19.1734 100.925 19.5892 101.295 20.1249L103.93 18.0549C103.332 17.1506 102.524 16.4606 101.514 15.9849C100.504 15.5134 99.3781 15.2734 98.136 15.2734C96.3824 15.2734 94.9598 15.6977 93.8767 16.5377C92.7936 17.382 92.252 18.492 92.252 19.872C92.252 20.6949 92.4154 21.3806 92.7463 21.9249C93.0773 22.4692 93.5114 22.9192 94.0486 23.2706C94.5859 23.622 95.1618 23.9049 95.785 24.1192C96.4082 24.3334 97.0013 24.5177 97.5816 24.6592C98.0973 24.8049 98.5615 24.9463 98.9741 25.092C99.3867 25.2377 99.7177 25.4049 99.9669 25.602C100.216 25.7992 100.341 26.0606 100.341 26.3906C100.341 26.742 100.147 27.0506 99.7692 27.3163C99.3867 27.582 98.8538 27.7192 98.1747 27.7192C97.2463 27.7192 96.477 27.4834 95.8667 27.0077C95.2563 26.5363 94.775 26.0392 94.4268 25.5249L91.5171 28.0577C91.891 28.4692 92.3638 28.9192 92.944 29.3992C93.52 29.8834 94.2463 30.2906 95.1102 30.6206C95.9784 30.9506 96.9884 31.1134 98.1446 31.1134C99.4254 31.1134 100.543 30.8992 101.506 30.4663C102.464 30.0334 103.208 29.4206 103.736 28.6277C104.265 27.8349 104.527 26.9263 104.527 25.8934C104.527 25.0063 104.347 24.2734 103.986 23.6863C103.625 23.0992 103.147 22.6277 102.559 22.2677L102.554 22.272Z" fill="white"/>
<path d="M117.967 16.3141C117.017 15.6241 115.869 15.2812 114.528 15.2812C113.849 15.2812 113.161 15.4098 112.469 15.667C111.777 15.9241 111.159 16.4041 110.613 17.1027C110.51 17.2355 110.411 17.3813 110.32 17.5355V15.5855H106.108V37.1127H110.32V28.7855C110.389 28.9055 110.458 29.0298 110.535 29.1413C111.03 29.8398 111.631 30.3455 112.332 30.6541C113.032 30.9627 113.767 31.117 114.532 31.117C115.71 31.117 116.776 30.8084 117.739 30.1912C118.697 29.5741 119.467 28.6741 120.047 27.487C120.623 26.3041 120.915 24.877 120.915 23.2098C120.915 21.6884 120.661 20.3255 120.154 19.1341C119.647 17.9384 118.921 16.9998 117.971 16.3098L117.967 16.3141ZM116.23 25.3612C115.964 25.9698 115.573 26.437 115.07 26.767C114.563 27.097 113.969 27.2598 113.29 27.2598C112.611 27.2598 112.014 27.0884 111.511 26.7498C111.004 26.4112 110.617 25.9441 110.351 25.3441C110.084 24.7484 109.947 24.037 109.947 23.2141C109.947 22.3913 110.08 21.6498 110.351 21.0541C110.617 20.4584 111.004 19.9955 111.511 19.6655C112.018 19.3355 112.611 19.1727 113.29 19.1727C113.969 19.1727 114.567 19.3313 115.07 19.6527C115.577 19.9741 115.964 20.437 116.23 21.0412C116.497 21.6498 116.634 22.3741 116.634 23.2184C116.634 24.0627 116.501 24.757 116.23 25.3655V25.3612Z" fill="white"/>
<path d="M135.185 17.5449C134.587 16.8334 133.839 16.2806 132.941 15.8777C132.043 15.4749 131.007 15.2734 129.829 15.2734C128.506 15.2734 127.371 15.5049 126.421 15.9677C125.471 16.4306 124.706 17.0477 124.13 17.8192C123.554 18.5906 123.124 19.452 122.845 20.3992C122.566 21.3463 122.428 22.302 122.428 23.2706C122.428 24.2392 122.566 25.2506 122.845 26.1892C123.124 27.1277 123.567 27.9634 124.178 28.7049C124.788 29.4463 125.583 30.0334 126.563 30.4663C127.543 30.8992 128.716 31.1134 130.079 31.1134C130.968 31.1134 131.755 31.0406 132.447 30.8992C133.139 30.7534 133.809 30.5177 134.458 30.1877C135.107 29.8577 135.816 29.4249 136.582 28.8892L134.63 25.9234C134.05 26.4163 133.38 26.7977 132.619 27.0677C131.854 27.3334 131.089 27.4706 130.328 27.4706C129.378 27.4706 128.561 27.2392 127.882 26.7763C127.199 26.3134 126.799 25.6063 126.675 24.6592H136.895C136.938 24.3506 136.964 24.072 136.973 23.8234C136.981 23.5749 136.99 23.3606 136.99 23.1763C136.99 22.0663 136.839 21.0249 136.543 20.0563C136.242 19.0877 135.795 18.2477 135.198 17.5406L135.185 17.5449ZM126.606 21.5134C126.666 21.0806 126.816 20.6606 127.053 20.2492C127.289 19.8377 127.642 19.4906 128.106 19.2163C128.57 18.9377 129.163 18.8006 129.885 18.8006C130.341 18.8006 130.753 18.8692 131.123 19.002C131.493 19.1349 131.815 19.3277 132.082 19.572C132.348 19.8163 132.563 20.112 132.718 20.4506C132.864 20.772 132.941 21.1277 132.945 21.5177H126.597L126.606 21.5134Z" fill="white"/>
<path d="M148.418 15.4955C147.941 15.3498 147.447 15.2812 146.931 15.2812C146.209 15.2812 145.508 15.4698 144.825 15.8513C144.146 16.2327 143.583 16.7641 143.136 17.4413C143.071 17.5398 143.02 17.6427 142.964 17.7413V15.5855H138.688V30.8127H142.93V24.4827C142.93 23.617 142.955 22.9655 143.007 22.5198C143.059 22.0784 143.136 21.7098 143.239 21.4227C143.402 20.9684 143.622 20.6041 143.888 20.3255C144.155 20.047 144.464 19.837 144.816 19.6913C145.169 19.5455 145.53 19.477 145.9 19.477C146.269 19.477 146.639 19.5327 147 19.6484C147.361 19.7598 147.653 19.8927 147.881 20.0341L149.927 16.2027C149.389 15.8727 148.882 15.637 148.41 15.4913L148.418 15.4955Z" fill="white"/>
<path d="M0.116211 23.551C0.116211 24.6396 0.262343 25.7196 0.54601 26.7696C1.44429 30.0653 3.81249 32.8553 7.04888 34.4239L17.089 39.2967L27.1463 34.4153C30.1592 32.9539 32.4543 30.3867 33.4472 27.3782C33.8555 26.1396 34.0618 24.8539 34.0618 23.551V0.695312H0.116211V23.551ZM3.55461 4.12388H30.6234V23.551C30.6234 24.4896 30.4729 25.4196 30.1807 26.311C29.4801 28.4453 27.8254 30.2753 25.642 31.3339L17.089 35.4867L8.55317 31.3425C6.21077 30.2067 4.50446 28.2139 3.86406 25.8696C3.65776 25.111 3.55461 24.331 3.55461 23.5467V4.12388Z" fill="#00A9DD"/>
<path d="M10.1006 27.9882L13.4488 24.6496C14.5362 25.3053 15.7869 25.661 17.0892 25.661C18.3915 25.661 19.6422 25.3053 20.7296 24.6496L24.0734 27.9839L26.5061 25.5582L23.1579 22.2196C24.4946 19.991 24.4946 17.1882 23.1579 14.9639L26.5061 11.6253L24.0734 9.1996L20.7296 12.5339C19.6422 11.8782 18.3915 11.5225 17.0892 11.5225C15.7869 11.5225 14.5362 11.8782 13.4488 12.5339L10.1006 9.19531L7.66797 11.621L11.0118 14.9553C10.3542 16.0396 9.99748 17.2867 9.99748 18.5853C9.99748 19.8839 10.3542 21.131 11.0118 22.2153L7.66797 25.5496L10.1006 27.9753V27.9882ZM14.5104 16.0267C15.1981 15.341 16.1135 14.9639 17.0892 14.9639C18.0648 14.9639 18.9803 15.341 19.668 16.0267C21.0906 17.4453 21.0906 19.751 19.668 21.1696C18.9803 21.8553 18.0648 22.2367 17.0892 22.2367C16.1135 22.2367 15.1981 21.8596 14.5104 21.1696C13.8227 20.4796 13.4402 19.571 13.4402 18.5982C13.4402 17.6253 13.8184 16.7125 14.5104 16.0267Z" fill="#00A9DD"/>
</g>
<defs>
<clipPath id="clip0_1697_21214">
<rect width="150" height="39" fill="white" transform="translate(0 0.5)"/>
</clipPath>
</defs>
</svg>
