<svg width="100" height="100" viewBox="0 0 100 100" fill="none" xmlns="http://www.w3.org/2000/svg">
<path d="M11 6V58.6965C11 61.2063 11.336 63.6964 11.9881 66.1172C14.0533 73.7159 19.4978 80.1485 26.9384 83.7651L50.0209 95L73.1429 83.7453C80.0696 80.3758 85.3462 74.457 87.6287 67.5204C88.5675 64.6647 89.0417 61.7003 89.0417 58.6965V6H11ZM81.1368 58.6965C81.1368 60.8604 80.7909 63.0047 80.119 65.06C78.5084 69.9808 74.7041 74.2001 69.6845 76.6407L50.0209 86.2156L30.3968 76.6605C25.0115 74.042 21.0887 69.4472 19.6164 64.0422C19.1421 62.2932 18.905 60.4948 18.905 58.6866V13.905H81.1368V58.6965Z" fill="#00A9DD"/>
<path d="M33.9541 68.9334L41.6515 61.2359C44.1614 62.7478 47.0269 63.5679 50.0209 63.5679C53.0149 63.5679 55.8904 62.7478 58.3903 61.2359L66.0878 68.9235L71.6805 63.3307L63.9831 55.6333C67.0561 50.4951 67.0561 44.0328 63.9831 38.9044L71.6805 31.207L66.0878 25.6142L58.3903 33.3018C55.8904 31.7899 53.0149 30.9698 50.0209 30.9698C47.0269 30.9698 44.1515 31.7899 41.6515 33.3018L33.9541 25.6043L28.3613 31.1971L36.0489 38.8846C34.5371 41.3846 33.7169 44.26 33.7169 47.254C33.7169 50.248 34.5371 53.1235 36.0489 55.6234L28.3613 63.311L33.9541 68.9038V68.9334ZM44.0922 41.3549C45.6732 39.774 47.7779 38.9044 50.0209 38.9044C52.264 38.9044 54.3687 39.774 55.9497 41.3549C59.2203 44.6256 59.2203 49.9417 55.9497 53.2124C54.3687 54.7934 52.264 55.6728 50.0209 55.6728C47.7779 55.6728 45.6732 54.8033 44.0922 53.2124C42.5112 51.6215 41.6318 49.5267 41.6318 47.2837C41.6318 45.0406 42.5013 42.9359 44.0922 41.3549Z" fill="#00A9DD"/>
</svg>
