<svg width="259" height="59" viewBox="0 0 259 59" fill="none" xmlns="http://www.w3.org/2000/svg">
<g clip-path="url(#clip0_1_545)">
<path d="M0.183121 -2.15656V34.0098C0.183121 35.7323 0.413695 37.4413 0.861282 39.1028C2.27864 44.3178 6.01531 48.7326 11.1219 51.2147L26.9637 58.9254L42.8327 51.2011C47.5866 48.8886 51.208 44.8264 52.7745 40.0657C53.4188 38.1059 53.7443 36.0714 53.7443 34.0098V-2.15656H0.183121ZM48.319 34.0098C48.319 35.4949 48.0816 36.9665 47.6205 38.3771C46.5151 41.7544 43.9042 44.6501 40.4591 46.3252L26.9637 52.8965L13.4954 46.3387C9.79944 44.5416 7.10714 41.3882 6.09669 37.6786C5.77117 36.4783 5.60841 35.244 5.60841 34.003V3.26873H48.319V34.0098Z" fill="#00A9DD"/>
<path d="M15.9368 41.0355L21.2197 35.7526C22.9422 36.7902 24.9089 37.3531 26.9637 37.3531C29.0185 37.3531 30.992 36.7902 32.7077 35.7526L37.9906 41.0287L41.829 37.1903L36.5461 31.9075C38.6552 28.381 38.6552 23.9459 36.5461 20.4262L41.829 15.1433L37.9906 11.3049L32.7077 16.581C30.992 15.5434 29.0185 14.9806 26.9637 14.9806C24.9089 14.9806 22.9354 15.5434 21.2197 16.581L15.9368 11.2982L12.0984 15.1365L17.3745 20.4126C16.3369 22.1284 15.774 24.1018 15.774 26.1567C15.774 28.2115 16.3369 30.1849 17.3745 31.9007L12.0984 37.1768L15.9368 41.0152V41.0355ZM22.8947 22.108C23.9798 21.023 25.4243 20.4262 26.9637 20.4262C28.5031 20.4262 29.9476 21.023 31.0327 22.108C33.2774 24.3528 33.2774 28.0013 31.0327 30.246C29.9476 31.331 28.5031 31.9346 26.9637 31.9346C25.4243 31.9346 23.9798 31.3378 22.8947 30.246C21.8097 29.1541 21.2061 27.7164 21.2061 26.177C21.2061 24.6376 21.8029 23.1931 22.8947 22.108Z" fill="#00A9DD"/>
<path d="M71.5798 34.1318H78.7141C78.7141 37.604 80.1314 39.8487 85.5093 39.8487C90.8871 39.8487 92.1552 37.8956 92.1552 35.8408C92.1552 34.4709 91.5652 33.5893 90.2971 33.1553C88.8797 32.667 85.5567 32.1787 82.8712 31.7854C79.6974 31.2971 76.4694 30.6597 74.6112 29.439C72.5564 28.1165 71.4849 25.8718 71.4849 22.793C71.4849 16.7302 76.2252 12.5324 85.5093 12.5324C95.7224 12.5324 99.0454 16.7845 99.0454 24.0205H91.9586C91.9586 20.3516 90.0529 18.351 85.6517 18.351C81.2504 18.351 79.4465 19.9651 79.4465 22.1148C79.4465 23.6814 79.8873 24.5562 81.0131 25.0445C82.2337 25.5802 85.6042 26.1228 88.344 26.5568C91.9586 27.14 94.6983 27.73 96.604 28.754C98.9029 29.9747 100.124 32.2737 100.124 35.3051C100.124 40.7778 97.0448 45.6674 85.5567 45.6674C74.0687 45.6674 71.5798 40.0454 71.5798 34.1318Z" fill="#F9FBFC"/>
<path d="M100.754 21.0366H108.574L112.629 37.9974H112.724L117.369 21.0366H124.748L129.244 37.9974H129.291L133.543 21.0366H140.481L133.733 45.1791H124.592L120.631 29.2966H120.482L116.277 45.1791H107.482L100.734 21.0366H100.754Z" fill="#F9FBFC"/>
<path d="M142.393 12.5799H149.826V18.4935H142.393V12.5799ZM142.393 21.0366H149.826V45.1791H142.393V21.0366Z" fill="#F9FBFC"/>
<path d="M152.315 37.0683H158.961C158.961 39.3198 160.087 40.7846 164.339 40.7846C168.197 40.7846 169.567 39.6589 169.567 37.9024C169.567 37.0208 169.126 36.3359 167.858 36.0443C166.59 35.7527 164.63 35.556 162.236 35.3593C158.764 35.0677 156.079 34.5252 154.614 33.5012C153.244 32.5246 152.315 30.7614 152.315 28.7608C152.315 23.5322 157.693 20.65 164.386 20.65C172.3 20.65 175.922 23.6814 175.922 29.3034H169.371C169.323 26.7603 168.15 25.4446 164.481 25.4446C161.158 25.4446 159.693 26.5704 159.693 28.2319C159.693 29.2559 160.087 30.0426 161.45 30.3816C162.67 30.6732 164.82 30.8699 167.411 31.114C170.395 31.4057 172.497 31.6973 174.301 32.7281C175.867 33.6097 176.986 35.4136 176.986 37.5159C176.986 42.6021 172.639 45.5792 164.379 45.5792C156.119 45.5792 152.308 41.9646 152.308 37.0751L152.315 37.0683Z" fill="#F9FBFC"/>
<path d="M179.387 21.0365H186.813L186.664 25.9735H186.711C187.64 22.6505 190.719 20.6432 194.876 20.6432C201.624 20.6432 206.018 25.431 206.018 32.5653C206.018 40.3845 201.617 45.5656 194.829 45.5656C190.428 45.5656 187.695 43.7549 186.616 40.8253H186.569C186.664 42.4393 186.813 44.8332 186.813 45.7148V54.8564H179.387V21.0365ZM198.647 32.8636C198.647 28.9507 196.395 26.3126 193.025 26.3126C189.309 26.3126 186.82 28.9981 186.82 33.0603V34.1386C186.82 37.6108 189.315 39.903 193.072 39.903C196.395 39.903 198.647 37.0682 198.647 32.8636Z" fill="#F9FBFC"/>
<path d="M232.514 34.5251H215.357C215.696 38.4856 217.703 40.1946 221.026 40.1946C223.908 40.1946 225.767 39.1705 225.963 36.8241H232.514C232.365 42.3443 227.774 45.5724 220.884 45.5724C212.868 45.5724 207.883 41.0287 207.883 33.3519C207.883 25.6751 212.868 20.6432 221.033 20.6432C227.781 20.6432 232.521 24.5019 232.521 32.4228V34.5251H232.514ZM225.963 30.1781C225.963 27.4384 224.105 26.021 221.026 26.021C217.947 26.021 216.137 27.3909 215.553 30.5647H225.963V30.1714V30.1781Z" fill="#F9FBFC"/>
<path d="M234.806 21.0365H242.232L241.941 27.9266H242.036C243.06 23.3355 245.65 20.6432 250.391 20.6432C255.131 20.6432 258.21 23.817 258.21 30.0764C258.21 31.4463 258.061 33.5961 257.966 34.8642H251.218C251.313 33.691 251.367 32.4703 251.367 31.7379C251.367 28.2182 249.95 26.8009 247.603 26.8009C244.429 26.8009 242.225 29.3915 242.225 34.7693V45.1791H234.8V21.0365H234.806Z" fill="#F9FBFC"/>
</g>
<defs>
<clipPath id="clip0_1_545">
<rect width="258.379" height="59" fill="white"/>
</clipPath>
</defs>
</svg>
