<svg width="14" height="15" viewBox="0 0 14 15" fill="none" xmlns="http://www.w3.org/2000/svg">
<path d="M0.0449219 -0.54834V8.64649C0.0449219 9.08442 0.102035 9.5189 0.212901 9.94132C0.563977 11.2672 1.48954 12.3896 2.75442 13.0206L6.67841 14.981L10.6091 13.0172C11.7867 12.4292 12.6837 11.3965 13.0717 10.1861C13.2313 9.68787 13.3119 9.17063 13.3119 8.64649V-0.54834H0.0449219ZM11.9681 8.64649C11.9681 9.02407 11.9093 9.39821 11.7951 9.75683C11.5212 10.6155 10.8745 11.3517 10.0212 11.7775L6.67841 13.4482L3.34235 11.781C2.42686 11.3241 1.75999 10.5223 1.5097 9.57925C1.42907 9.27407 1.38875 8.96028 1.38875 8.64476V0.83097H11.9681V8.64649Z" fill="#00A9DD"/>
<path d="M3.94685 10.4327L5.25541 9.08956C5.68208 9.35335 6.16922 9.49645 6.67819 9.49645C7.18717 9.49645 7.67599 9.35335 8.10098 9.08956L9.40953 10.4309L10.3603 9.45507L9.05174 8.11197C9.57415 7.21542 9.57415 6.08783 9.05174 5.193L10.3603 3.8499L9.40953 2.87404L8.10098 4.21542C7.67599 3.95162 7.18717 3.80852 6.67819 3.80852C6.16922 3.80852 5.6804 3.95162 5.25541 4.21542L3.94685 2.87231L2.99609 3.84818L4.30297 5.18956C4.04596 5.62576 3.90654 6.12749 3.90654 6.6499C3.90654 7.17231 4.04596 7.67404 4.30297 8.11025L2.99609 9.45162L3.94685 10.4275V10.4327ZM5.67032 5.62059C5.93909 5.34473 6.29688 5.193 6.67819 5.193C7.05951 5.193 7.4173 5.34473 7.68607 5.62059C8.24208 6.19128 8.24208 7.11887 7.68607 7.68956C7.4173 7.96542 7.05951 8.11887 6.67819 8.11887C6.29688 8.11887 5.93909 7.96714 5.67032 7.68956C5.40155 7.41197 5.25205 7.04645 5.25205 6.65507C5.25205 6.26369 5.39987 5.89645 5.67032 5.62059Z" fill="#00A9DD"/>
</svg>
