<svg width="150" height="39" viewBox="0 0 150 39" fill="none" xmlns="http://www.w3.org/2000/svg">
<g clip-path="url(#clip0_43_1414)">
<path d="M58.7321 19.05C57.8338 18.4414 56.7034 17.8929 55.3409 17.3957C54.3309 17.0057 53.5186 16.6457 52.9083 16.3157C52.298 15.9857 51.8725 15.6514 51.6232 15.3129C51.3739 14.9743 51.2493 14.5971 51.2493 14.1857C51.2493 13.7957 51.3567 13.4443 51.5759 13.1357C51.7908 12.8271 52.0788 12.5914 52.4269 12.4243C52.7793 12.2614 53.1705 12.1757 53.6046 12.1757C54.2836 12.1757 54.9068 12.3729 55.4613 12.7629C56.02 13.1529 56.5057 13.7186 56.9183 14.46L60.447 12.33C59.7464 10.9714 58.8266 9.95143 57.6919 9.27429C56.5573 8.59286 55.2464 8.25429 53.7593 8.25429C52.3753 8.25429 51.1633 8.51143 50.1189 9.02572C49.0745 9.54 48.2664 10.2514 47.6862 11.1557C47.106 12.06 46.818 13.1014 46.818 14.2757C46.818 15.3686 47.0415 16.3243 47.4842 17.1471C47.9269 17.97 48.6146 18.6986 49.543 19.3243C50.4713 19.9543 51.6404 20.5457 53.0415 21.0986C53.9699 21.45 54.7349 21.78 55.3324 22.0886C55.9298 22.3971 56.3682 22.7314 56.6475 23.0914C56.9269 23.4514 57.0644 23.8671 57.0644 24.3429C57.0644 24.8571 56.9312 25.2986 56.6604 25.6714C56.394 26.04 56.02 26.3271 55.5473 26.52C55.0702 26.7171 54.5458 26.8157 53.9656 26.8157C52.8309 26.8157 51.8811 26.4986 51.116 25.86C50.351 25.2214 49.8567 24.2657 49.6289 22.9886L45.2922 24.0686C45.6232 26.0871 46.5344 27.7029 48.0344 28.9157C49.5301 30.1286 51.4556 30.7371 53.8109 30.7371C55.3366 30.7371 56.6776 30.4543 57.8209 29.8886C58.9685 29.3229 59.8581 28.5343 60.4985 27.5271C61.1389 26.52 61.457 25.3671 61.457 24.0686C61.457 22.9371 61.2249 21.9686 60.7607 21.1671C60.2965 20.3657 59.6132 19.6586 58.7149 19.05H58.7321Z" fill="#F9FBFC"/>
<path d="M76.9556 23.73L74.4799 15.0814H70.8567L68.3768 23.7943L65.9914 15.0814H61.4699L66.2407 30.3086H70.0831L72.6834 21.1371L75.3481 30.3086H79.1261L83.9269 15.0814H79.3753L76.9556 23.73Z" fill="#F9FBFC"/>
<path d="M89.8108 15.0814H85.5687V30.3086H89.8108V15.0814Z" fill="#F9FBFC"/>
<path d="M89.9312 8.78143H85.5043V12.8571H89.9312V8.78143Z" fill="#F9FBFC"/>
<path d="M102.554 21.7714C101.966 21.4114 101.342 21.1286 100.68 20.9228C100.019 20.7171 99.3911 20.5414 98.7894 20.3957C98.149 20.2328 97.6418 20.0871 97.2722 19.9628C96.9025 19.8386 96.6318 19.7014 96.4684 19.5471C96.3008 19.3928 96.2192 19.2043 96.2192 18.9771C96.2192 18.6686 96.3911 18.4157 96.7306 18.2186C97.0702 18.0214 97.5086 17.9271 98.0458 17.9271C98.6862 17.9271 99.2965 18.0771 99.8724 18.3728C100.448 18.6728 100.925 19.0886 101.295 19.6243L103.93 17.5543C103.332 16.65 102.524 15.96 101.514 15.4843C100.504 15.0128 99.3782 14.7728 98.1361 14.7728C96.3825 14.7728 94.9598 15.1971 93.8768 16.0371C92.7937 16.8814 92.2521 17.9914 92.2521 19.3714C92.2521 20.1943 92.4154 20.88 92.7464 21.4243C93.0773 21.9686 93.5114 22.4186 94.0487 22.77C94.5859 23.1214 95.1619 23.4043 95.7851 23.6186C96.4083 23.8328 97.0014 24.0171 97.5816 24.1586C98.0974 24.3043 98.5616 24.4457 98.9742 24.5914C99.3868 24.7371 99.7177 24.9043 99.967 25.1014C100.216 25.2986 100.341 25.56 100.341 25.89C100.341 26.2414 100.148 26.55 99.7693 26.8157C99.3868 27.0814 98.8538 27.2186 98.1748 27.2186C97.2464 27.2186 96.477 26.9828 95.8667 26.5071C95.2564 26.0357 94.775 25.5386 94.4269 25.0243L91.5172 27.5571C91.8911 27.9686 92.3639 28.4186 92.9441 28.8986C93.52 29.3828 94.2464 29.79 95.1103 30.12C95.9785 30.45 96.9885 30.6128 98.1447 30.6128C99.4255 30.6128 100.543 30.3986 101.506 29.9657C102.464 29.5328 103.208 28.92 103.736 28.1271C104.265 27.3343 104.527 26.4257 104.527 25.3928C104.527 24.5057 104.347 23.7728 103.986 23.1857C103.625 22.5986 103.148 22.1271 102.559 21.7671L102.554 21.7714Z" fill="#F9FBFC"/>
<path d="M117.967 15.81C117.017 15.12 115.87 14.7771 114.529 14.7771C113.85 14.7771 113.162 14.9057 112.47 15.1629C111.778 15.42 111.159 15.9 110.613 16.5986C110.51 16.7314 110.411 16.8771 110.321 17.0314V15.0814H106.109V36.6086H110.321V28.2814C110.39 28.4014 110.458 28.5257 110.536 28.6371C111.03 29.3357 111.632 29.8414 112.332 30.15C113.033 30.4586 113.768 30.6129 114.533 30.6129C115.711 30.6129 116.777 30.3043 117.739 29.6871C118.698 29.07 119.467 28.17 120.047 26.9829C120.623 25.8 120.915 24.3729 120.915 22.7057C120.915 21.1843 120.662 19.8214 120.155 18.63C119.648 17.4343 118.921 16.4957 117.971 15.8057L117.967 15.81ZM116.231 24.8571C115.964 25.4657 115.573 25.9329 115.07 26.2629C114.563 26.5929 113.97 26.7557 113.291 26.7557C112.612 26.7557 112.014 26.5843 111.511 26.2457C111.004 25.9071 110.617 25.44 110.351 24.84C110.085 24.2443 109.947 23.5329 109.947 22.71C109.947 21.8871 110.08 21.1457 110.351 20.55C110.617 19.9543 111.004 19.4914 111.511 19.1614C112.019 18.8314 112.612 18.6686 113.291 18.6686C113.97 18.6686 114.567 18.8271 115.07 19.1486C115.577 19.47 115.964 19.9329 116.231 20.5371C116.497 21.1457 116.635 21.87 116.635 22.7143C116.635 23.5586 116.501 24.2529 116.231 24.8614V24.8571Z" fill="#F9FBFC"/>
<path d="M135.185 17.0443C134.587 16.3328 133.84 15.78 132.941 15.3771C132.043 14.9743 131.007 14.7728 129.829 14.7728C128.506 14.7728 127.371 15.0043 126.421 15.4671C125.471 15.93 124.706 16.5471 124.13 17.3186C123.554 18.09 123.125 18.9514 122.845 19.8986C122.566 20.8457 122.428 21.8014 122.428 22.77C122.428 23.7386 122.566 24.75 122.845 25.6886C123.125 26.6271 123.567 27.4628 124.178 28.2043C124.788 28.9457 125.583 29.5328 126.563 29.9657C127.543 30.3986 128.716 30.6128 130.079 30.6128C130.968 30.6128 131.755 30.54 132.447 30.3986C133.139 30.2528 133.809 30.0171 134.458 29.6871C135.107 29.3571 135.817 28.9243 136.582 28.3886L134.63 25.4228C134.05 25.9157 133.38 26.2971 132.619 26.5671C131.854 26.8328 131.089 26.97 130.328 26.97C129.378 26.97 128.562 26.7386 127.882 26.2757C127.199 25.8128 126.799 25.1057 126.675 24.1586H136.895C136.938 23.85 136.964 23.5714 136.973 23.3228C136.981 23.0743 136.99 22.86 136.99 22.6757C136.99 21.5657 136.84 20.5243 136.543 19.5557C136.242 18.5871 135.795 17.7471 135.198 17.04L135.185 17.0443ZM126.606 21.0128C126.666 20.58 126.817 20.16 127.053 19.7486C127.289 19.3371 127.642 18.99 128.106 18.7157C128.57 18.4371 129.163 18.3 129.885 18.3C130.341 18.3 130.754 18.3686 131.123 18.5014C131.493 18.6343 131.815 18.8271 132.082 19.0714C132.348 19.3157 132.563 19.6114 132.718 19.95C132.864 20.2714 132.941 20.6271 132.946 21.0171H126.597L126.606 21.0128Z" fill="#F9FBFC"/>
<path d="M148.418 14.9914C147.941 14.8457 147.447 14.7771 146.931 14.7771C146.209 14.7771 145.509 14.9657 144.825 15.3471C144.146 15.7286 143.583 16.26 143.136 16.9371C143.072 17.0357 143.02 17.1386 142.964 17.2371V15.0814H138.688V30.3086H142.93V23.9786C142.93 23.1129 142.956 22.4614 143.007 22.0157C143.059 21.5743 143.136 21.2057 143.239 20.9186C143.403 20.4643 143.622 20.1 143.888 19.8214C144.155 19.5429 144.464 19.3329 144.817 19.1871C145.169 19.0414 145.53 18.9729 145.9 18.9729C146.269 18.9729 146.639 19.0286 147 19.1443C147.361 19.2557 147.653 19.3886 147.881 19.53L149.927 15.6986C149.39 15.3686 148.882 15.1329 148.41 14.9871L148.418 14.9914Z" fill="#F9FBFC"/>
<path d="M0.116028 23.0529C0.116028 24.1414 0.26216 25.2214 0.545827 26.2714C1.44411 29.5672 3.8123 32.3572 7.04869 33.9257L17.0888 38.7986L27.1461 33.9172C30.159 32.4557 32.4541 29.8886 33.447 26.88C33.8553 25.6414 34.0616 24.3557 34.0616 23.0529V0.197151H0.116028V23.0529ZM3.55442 3.62572H30.6232V23.0529C30.6232 23.9914 30.4728 24.9214 30.1805 25.8129C29.4799 27.9472 27.8252 29.7772 25.6418 30.8357L17.0888 34.9886L8.55299 30.8443C6.21058 29.7086 4.50428 27.7157 3.86388 25.3714C3.65758 24.6129 3.55442 23.8329 3.55442 23.0486V3.62572Z" fill="#00A9DD"/>
<path d="M10.1003 27.4929L13.4484 24.1543C14.5358 24.81 15.7865 25.1657 17.0888 25.1657C18.3911 25.1657 19.6418 24.81 20.7292 24.1543L24.073 27.4886L26.5057 25.0629L23.1576 21.7243C24.4942 19.4957 24.4942 16.6929 23.1576 14.4686L26.5057 11.13L24.073 8.70428L20.7292 12.0386C19.6418 11.3829 18.3911 11.0271 17.0888 11.0271C15.7865 11.0271 14.5358 11.3829 13.4484 12.0386L10.1003 8.7L7.6676 11.1257L11.0114 14.46C10.3538 15.5443 9.99711 16.7914 9.99711 18.09C9.99711 19.3886 10.3538 20.6357 11.0114 21.72L7.6676 25.0543L10.1003 27.48V27.4929ZM14.51 15.5314C15.1977 14.8457 16.1132 14.4686 17.0888 14.4686C18.0645 14.4686 18.9799 14.8457 19.6676 15.5314C21.0902 16.95 21.0902 19.2557 19.6676 20.6743C18.9799 21.36 18.0645 21.7414 17.0888 21.7414C16.1132 21.7414 15.1977 21.3643 14.51 20.6743C13.8223 19.9843 13.4398 19.0757 13.4398 18.1029C13.4398 17.13 13.818 16.2171 14.51 15.5314Z" fill="#00A9DD"/>
</g>
<defs>
<clipPath id="clip0_43_1414">
<rect width="150" height="39" fill="white"/>
</clipPath>
</defs>
</svg>
