<svg width="36" height="40" viewBox="0 0 36 40" fill="none" xmlns="http://www.w3.org/2000/svg">
<path d="M10.5885 28.2847L14.1393 24.8251C15.2925 25.5046 16.6189 25.8732 18 25.8732C19.3811 25.8732 20.7075 25.5046 21.8607 24.8251L25.4069 28.2802L27.9868 25.7666L24.4361 22.3071C25.8536 19.9978 25.8536 17.0934 24.4361 14.7885L27.9868 11.329L25.4069 8.81535L21.8607 12.2704C20.7075 11.591 19.3811 11.2224 18 11.2224C16.6189 11.2224 15.2925 11.591 14.1393 12.2704L10.5885 8.81091L8.00861 11.3245L11.5548 14.7796C10.8574 15.9032 10.4791 17.1955 10.4791 18.5411C10.4791 19.8867 10.8574 21.1791 11.5548 22.3026L8.00861 25.7577L10.5885 28.2713V28.2847ZM15.2651 15.8899C15.9944 15.1793 16.9653 14.7885 18 14.7885C19.0347 14.7885 20.0056 15.1793 20.7349 15.8899C22.2436 17.3598 22.2436 19.7491 20.7349 21.219C20.0056 21.9296 19.0347 22.3248 18 22.3248C16.9653 22.3248 15.9944 21.934 15.2651 21.219C14.5358 20.504 14.1302 19.5626 14.1302 18.5544C14.1302 17.5463 14.5313 16.6004 15.2651 15.8899Z" fill="#00A9DD"/>
<path d="M0 23.6838C0 24.8118 0.154976 25.9309 0.455812 27.019C1.40846 30.4341 3.91998 33.3252 7.35224 34.9506L18 40L28.666 34.9417C31.8612 33.4273 34.2953 30.7672 35.3482 27.6496C35.7812 26.3662 36 25.0339 36 23.6838V0H0V23.6838ZM3.64649 3.55279H32.3535V23.6838C32.3535 24.6564 32.194 25.6201 31.884 26.5438C31.141 28.7554 29.3862 30.6517 27.0707 31.7486L18 36.052L8.94758 31.7575C6.46341 30.5807 4.65384 28.5156 3.97468 26.0864C3.75589 25.3003 3.64649 24.4921 3.64649 23.6794V3.55279Z" fill="#00A9DD"/>
</svg>
